<svg width="1000" height="1017" xmlns="http://www.w3.org/2000/svg" xmlns:xlink="http://www.w3.org/1999/xlink"><defs><linearGradient x1="84.482%" y1="7.18%" x2="56.221%" y2="87.571%" id="b"><stop stop-color="#14325D" offset="0%"/><stop stop-color="#212F87" offset="50.953%"/><stop stop-color="#1B3076" offset="100%"/></linearGradient><path d="M942.874 671.827c-41.68 108.858-112.123 159.695-211.33 152.51-61.172-4.431-110.15 73.826-195.973 99.891-85.824 26.065-181.447-25.288-249.283-19.995-72.949 5.69-100.937 52.758-117.743 72.198-16.805 19.44-53.625 38.88-107.611 26.323-58.2-13.536-72.334-83.933-51.85-143.379 19.082-55.382 71.56-111.106 72.614-192.003h-.083c0-108.203 31.438-177.281 89.935-244.273 5.635-6.453 70.648-68.108 126.062-75.568 86.65-11.664 143.53 28.183 222.243 31.463 78.714 3.28 224.123-8.147 283.42-68.2 30.829-34.594 55.48-82.412 9.885-144.278 0 0-37.978-55.992 11.783-105.075 18.024-17.778 21.287-34.257 9.883-43.542-11.404-9.284-29.705 6.235-31.552 3.943-1.847-2.292 26.391-39 64.614-11.154 21.715 18.168 14.034 57.167 5.433 88.443-8.6 31.276 42.944 38.2 69.674 73.132 28.285 36.964 66.036 93.286 54.845 244.274-7.46 100.658-25.742 185.755-54.845 255.29h-.121z" id="a"/><linearGradient x1="64.256%" y1="37.642%" x2="63.13%" y2="61.136%" id="f"><stop stop-color="#3636CC" offset="0%"/><stop stop-color="#113255" offset="100%"/></linearGradient><path d="M131.7 769.518c88.443-17.636 162.076-17.636 220.9 0 88.233 26.453 126.431 89.578 214.322 85.836 87.89-3.742 107.05-72.54 220.704-67.499 75.77 3.361 133.092-49.928 171.966-159.866 40.327 220.08 59.05 330.338 56.168 330.774-4.323.655-487.221 27.344-525.436 22.11-38.215-5.235-498.5 80.108-498.6 71.75-.062-5.136-57.685-83.058 24.895-239.144 4.662-8.811 43.022-23.465 115.081-43.961z" id="e"/><filter x="-14.5%" y="-33.6%" width="128.9%" height="171%" filterUnits="objectBoundingBox" id="d"><feOffset dy="8" in="SourceAlpha" result="shadowOffsetOuter1"/><feGaussianBlur stdDeviation="49" in="shadowOffsetOuter1" result="shadowBlurOuter1"/><feColorMatrix values="0 0 0 0 0.031372549 0 0 0 0 0.0980392157 0 0 0 0 0.168627451 0 0 0 0.531193388 0" in="shadowBlurOuter1"/></filter><path d="M25.029 4.544a13.23 13.23 0 0 1-.301 18.794c-5.306 5.107-13.774 4.973-18.915-.3-5.14-5.27-5.005-13.685.3-18.792C11.42-.861 19.889-.727 25.03 4.544z" id="g"/><path d="M6.255 9.398C15.516-1.477 32.022-2.939 43.12 6.135c11.102 9.075 12.592 25.248 3.332 36.125-9.26 10.876-25.768 12.337-36.868 3.262-11.1-9.073-12.592-25.247-3.33-36.124" id="i"/><path d="M14.803.23C6.627.23 0 6.883 0 15.086 0 23.29 6.627 29.94 14.803 29.94c8.174 0 14.802-6.65 14.802-14.855 0-8.203-6.628-14.854-14.802-14.854z" id="k"/><path d="M29.824 8.611c4.141 7.715 1.245 17.326-6.469 21.466-7.714 4.141-17.325 1.245-21.466-6.469C-2.252 15.894.643 6.284 8.358 2.142c7.714-4.14 17.324-1.244 21.466 6.47z" id="m"/></defs><g fill="none" fill-rule="evenodd"><g transform="translate(0 9.333)"><mask id="c" fill="#fff"><use xlink:href="#a"/></mask><use fill="url(#b)" fill-rule="nonzero" xlink:href="#a"/><g mask="url(#c)"><use fill="#000" filter="url(#d)" xlink:href="#e"/><use fill="url(#f)" xlink:href="#e"/></g></g><path d="M288.688 376.436c-.812.27-.466 1.597.358 1.528a.803.803 0 0 0 .464-.204.553.553 0 0 0 .092-.054c.66-.51-.3-1.474-.914-1.27" fill="#92CDFA"/><path d="M855.375 101.992a.803.803 0 0 0 .465-.205.553.553 0 0 0 .09-.053c.66-.51-.298-1.474-.912-1.27-.813.27-.467 1.597.357 1.528z" fill="#C7EBFF"/><path d="M905.63 362.584c-.812.27-.466 1.597.358 1.528a.803.803 0 0 0 .464-.204.553.553 0 0 0 .091-.054c.66-.51-.299-1.473-.913-1.27" fill="#92CDFA"/><path d="M748.418 387.382c0 .203-.005.408-.056.605-.012.048-.175.525-.234.513-.406-.08-.434-.529-.481-.778a3.136 3.136 0 0 1-.043-.323c-.22 0-.445-.004-.659-.056-.05-.012-.553-.176-.54-.234.084-.406.557-.434.82-.481.12-.022.24-.036.362-.045v-.08a2.04 2.04 0 0 1 .053-.523c.012-.048.175-.526.234-.515.402.08.46.504.492.755.015.116.026.232.034.348h.107c.184-.002.37.009.551.053.051.012.555.175.542.234-.084.401-.53.459-.795.492a6.51 6.51 0 0 1-.387.035zM881.61 198.25c0 .204-.006.409-.056.605-.013.048-.176.526-.235.514-.406-.081-.433-.53-.48-.779a3.137 3.137 0 0 1-.044-.323c-.22 0-.444-.003-.659-.056-.05-.012-.553-.175-.54-.234.084-.406.557-.434.82-.48.12-.022.241-.036.362-.045v-.08a2.04 2.04 0 0 1 .053-.524c.012-.048.175-.526.235-.514.4.08.459.503.491.755.015.115.026.231.034.347h.108c.183-.001.37.009.55.053.051.012.555.175.542.235-.084.4-.53.458-.794.491a6.51 6.51 0 0 1-.388.036zM838.988 75.715c0 .203-.005.408-.056.604-.012.048-.175.526-.234.514-.406-.081-.434-.53-.481-.779a3.137 3.137 0 0 1-.043-.323c-.22 0-.445-.003-.659-.056-.05-.012-.553-.175-.54-.234.084-.406.557-.434.82-.48.12-.022.24-.036.362-.045v-.08a2.04 2.04 0 0 1 .053-.523c.012-.049.175-.527.234-.515.402.08.46.503.492.755.015.115.026.231.034.347h.107c.184-.001.37.009.551.053.051.012.555.176.542.235-.084.4-.53.458-.795.491a6.51 6.51 0 0 1-.387.036z" fill="#D7D7FF"/><path d="M711.451 311.5a3.702 3.702 0 0 0-.708-.053h-.244c-.008-.205-.02-.41-.04-.614-.032-.34-.09-.912-.491-1.02-.06-.016-.223.63-.235.695a3.733 3.733 0 0 0-.053.707v.245c-.194.008-.39.021-.582.048-.337.047-.943.075-1.053.48-.015.06.63.223.694.235.31.06.635.057.953.055.008.195.021.39.048.583.047.337.075.943.48 1.052.06.017.223-.629.235-.694.06-.31.057-.634.056-.952.205-.008.41-.02.615-.04.34-.032.912-.09 1.02-.492.016-.059-.63-.223-.695-.234M925.09 290.19a3.702 3.702 0 0 0-.708-.053h-.244a11.3 11.3 0 0 0-.04-.615c-.032-.34-.09-.912-.491-1.02-.06-.016-.223.63-.235.696a3.733 3.733 0 0 0-.053.707v.245c-.195.007-.39.02-.582.048-.338.046-.943.074-1.053.48-.016.059.63.222.694.234.31.06.635.058.953.055.008.195.02.39.048.584.047.337.075.942.48 1.051.06.017.223-.628.235-.693.06-.31.057-.635.055-.953.206-.007.411-.02.616-.04.34-.032.911-.09 1.02-.491.015-.06-.63-.223-.695-.235" fill="#71CEFC"/><path d="M275.902 620.975c-.812.27-.467 1.597.357 1.528a.803.803 0 0 0 .465-.204.553.553 0 0 0 .091-.054c.66-.51-.299-1.473-.913-1.27" fill="#92CDFA"/><path d="M476.222 515.488c-.813.27-.467 1.596.357 1.528a.803.803 0 0 0 .465-.205.553.553 0 0 0 .09-.053c.66-.51-.298-1.474-.912-1.27" fill="#C7EBFF"/><path d="M200.25 663.596c-.813.27-.467 1.597.357 1.529a.803.803 0 0 0 .464-.205.553.553 0 0 0 .092-.053c.66-.51-.3-1.474-.913-1.27" fill="#92CDFA"/><path d="M363.229 778.965c0 .202-.005.408-.056.604-.012.048-.176.526-.234.514-.406-.081-.434-.53-.481-.779a3.137 3.137 0 0 1-.043-.323c-.221 0-.445-.004-.659-.056-.05-.012-.554-.175-.541-.234.085-.406.558-.434.82-.481.12-.022.242-.036.363-.044v-.08a2.04 2.04 0 0 1 .053-.524c.012-.048.175-.526.234-.514.401.08.46.503.492.755.015.115.026.231.034.347h.107c.184-.001.37.009.551.053.05.012.555.175.542.235-.084.4-.53.458-.795.491a6.51 6.51 0 0 1-.387.036zM576.335 441.192c0 .202-.005.408-.056.604-.012.048-.176.526-.234.514-.406-.081-.434-.53-.481-.779a3.137 3.137 0 0 1-.043-.323c-.22 0-.445-.004-.659-.056-.05-.012-.554-.175-.541-.234.085-.406.558-.434.82-.481.12-.022.242-.036.363-.045v-.08a2.04 2.04 0 0 1 .053-.523c.012-.048.175-.526.234-.514.401.08.46.503.492.755.015.115.026.231.034.347h.107c.184-.001.37.009.551.053.05.012.555.175.542.234-.084.402-.53.46-.795.492a6.51 6.51 0 0 1-.387.036z" fill="#D7D7FF"/><path d="M396.587 603.989a3.702 3.702 0 0 0-.708-.054h-.244a11.3 11.3 0 0 0-.04-.614c-.032-.34-.09-.912-.491-1.02-.06-.016-.223.63-.235.695a3.733 3.733 0 0 0-.053.707v.245c-.195.008-.39.021-.582.048-.338.047-.943.075-1.053.48-.016.06.63.223.694.235.31.06.635.057.953.055.008.195.021.39.048.583.047.337.075.943.48 1.052.06.017.223-.629.235-.694.06-.31.057-.634.056-.952.205-.008.41-.02.615-.04.34-.032.911-.09 1.02-.492.016-.059-.63-.223-.695-.234M610.226 582.678a3.702 3.702 0 0 0-.708-.053h-.244a11.3 11.3 0 0 0-.04-.615c-.032-.34-.09-.912-.492-1.02-.06-.016-.222.63-.235.696a3.733 3.733 0 0 0-.052.707v.245c-.195.007-.39.02-.583.048-.337.046-.943.074-1.052.48-.016.059.63.222.694.234.31.06.635.058.953.055.008.195.02.39.048.584.047.337.075.942.48 1.051.06.017.223-.628.235-.693.059-.31.057-.635.055-.953.206-.007.411-.02.616-.04.339-.032.911-.09 1.02-.491.015-.06-.63-.223-.695-.235" fill="#71CEFC"/><path d="M900.836 732.856c-.813.27-.467 1.597.357 1.528a.803.803 0 0 0 .464-.205.553.553 0 0 0 .092-.053c.66-.51-.3-1.474-.913-1.27" fill="#92CDFA"/><path d="M698.918 756.83c-.813.27-.467 1.597.357 1.529a.803.803 0 0 0 .465-.205.553.553 0 0 0 .09-.053c.66-.51-.299-1.474-.912-1.27" fill="#C7EBFF"/><path d="M206.11 509.095c-.813.27-.467 1.596.357 1.528a.803.803 0 0 0 .465-.205.553.553 0 0 0 .09-.053c.661-.51-.298-1.474-.912-1.27" fill="#92CDFA"/><path d="M485.812 756.83c-.813.27-.467 1.597.357 1.529a.803.803 0 0 0 .465-.205.553.553 0 0 0 .09-.053c.66-.51-.299-1.474-.912-1.27" fill="#C7EBFF"/><path d="M831.4 496.238a.803.803 0 0 0 .465-.205.553.553 0 0 0 .091-.053c.66-.51-.299-1.474-.913-1.27-.812.27-.466 1.597.358 1.528z" fill="#92CDFA"/><path d="M912.024 447.827c-.813.27-.467 1.596.357 1.528a.803.803 0 0 0 .465-.205.553.553 0 0 0 .09-.053c.66-.51-.299-1.474-.912-1.27M874.73 282.67c-.812.269-.467 1.596.357 1.528a.803.803 0 0 0 .465-.205.553.553 0 0 0 .091-.053c.66-.51-.3-1.474-.913-1.27M933.334 213.41c-.812.27-.467 1.597.357 1.528a.803.803 0 0 0 .465-.205.553.553 0 0 0 .091-.053c.66-.51-.299-1.474-.913-1.27M821.454 149.478c-.813.27-.467 1.597.357 1.528a.803.803 0 0 0 .465-.204.553.553 0 0 0 .09-.054c.66-.51-.299-1.474-.912-1.27M841.699 17.352c-.813.27-.467 1.597.357 1.529a.803.803 0 0 0 .465-.205.553.553 0 0 0 .09-.053c.66-.51-.299-1.474-.912-1.27" fill="#C7EBFF"/><path d="M466.585 886.05c0 .203-.005.408-.055.605-.013.048-.176.526-.235.513-.406-.08-.433-.529-.48-.778a3.136 3.136 0 0 1-.044-.323c-.22 0-.444-.004-.659-.056-.05-.012-.553-.175-.54-.234.084-.406.557-.434.82-.481.12-.022.241-.036.362-.045v-.08a2.04 2.04 0 0 1 .053-.523c.012-.048.176-.526.235-.514.4.08.459.503.491.754.015.116.026.232.034.348h.108c.183-.001.37.009.55.053.051.012.555.175.542.234-.084.401-.53.459-.794.492a6.51 6.51 0 0 1-.388.035zM799.03 682.534c.001.203-.005.408-.055.605-.012.048-.176.525-.234.513-.406-.08-.434-.53-.481-.778a3.137 3.137 0 0 1-.043-.324c-.221.001-.445-.003-.66-.055-.05-.012-.553-.176-.54-.234.085-.406.557-.435.82-.481.12-.022.241-.036.363-.045v-.08a2.04 2.04 0 0 1 .053-.523c.012-.048.175-.527.234-.515.401.08.46.504.492.755.015.116.026.232.034.348h.107c.183-.002.37.008.551.053.05.011.554.175.542.234-.084.401-.53.459-.795.492a6.51 6.51 0 0 1-.388.035z" fill="#D7D7FF"/><path d="M905.377 591.202a3.702 3.702 0 0 0-.707-.053h-.244a11.3 11.3 0 0 0-.04-.615c-.033-.34-.09-.911-.492-1.02-.06-.015-.222.63-.235.696a3.733 3.733 0 0 0-.052.707v.245c-.195.007-.39.02-.583.048-.337.047-.943.074-1.052.48-.016.059.63.223.694.234.31.06.635.058.953.056.008.195.02.39.048.583.047.337.075.943.48 1.052.06.016.222-.629.235-.694.059-.31.057-.634.055-.953.206-.007.41-.02.615-.04.34-.031.912-.09 1.02-.491.016-.06-.63-.223-.695-.235" fill="#71CEFC"/><path d="M347.138 381.754c-.541.18-.31 1.065.239 1.02a.535.535 0 0 0 .31-.137c.02-.01.041-.021.06-.036.44-.34-.2-.982-.609-.847M725.402 381.754c-.542.18-.312 1.065.238 1.02a.535.535 0 0 0 .31-.137c.02-.01.041-.021.06-.036.44-.34-.2-.982-.608-.847M868.183 381.754c-.542.18-.312 1.065.238 1.02a.535.535 0 0 0 .31-.137c.02-.01.041-.021.06-.036.44-.34-.2-.982-.608-.847M846.872 312.495c-.542.18-.311 1.065.238 1.019a.535.535 0 0 0 .31-.137c.02-.01.042-.02.06-.035.44-.34-.199-.983-.608-.847M900.149 243.236c-.542.18-.312 1.064.238 1.018a.535.535 0 0 0 .31-.136c.02-.01.041-.021.06-.036.44-.34-.2-.982-.608-.846M852.2 200.614c-.542.18-.311 1.065.238 1.02a.535.535 0 0 0 .31-.137c.02-.01.041-.021.06-.036.44-.34-.199-.982-.608-.847M852.2 136.683c-.542.18-.311 1.064.238 1.018a.535.535 0 0 0 .31-.136c.02-.01.041-.021.06-.036.44-.34-.199-.982-.608-.846M868.183 46.112c-.542.18-.312 1.065.238 1.02a.535.535 0 0 0 .31-.137c.02-.01.041-.021.06-.036.44-.34-.2-.982-.608-.847" fill="#FFF"/><g><g transform="translate(851.891 -.176)"><mask id="h" fill="#fff"><use xlink:href="#g"/></mask><use fill="#8181F5" xlink:href="#g"/><path d="M1.28 14.182c1.193 1.008 4.614-.466 8.066-.687 3.452-.22 8.669.555 10.036 6.685.912 4.087 2.905 5.08 5.98 2.982-5.901 5.92-9.185 8.78-9.85 8.582-.998-.3-15.077-1.573-15.365-2.88-.288-1.308-.059-15.69 1.134-14.682z" fill="#5F5FF6" mask="url(#h)"/></g><path d="M853.967 12.94c.33.219.617.327.79.846.275.83-.093 1.567-.606 2.199-.025-.138-.038-.276-.058-.414.315-.45.508-.954.344-1.527-.093-.33-.28-.524-.497-.683.003-.141.02-.28.027-.42" fill="#00B3FF"/><path d="M878.607 6.49c-1.025-.688-2.144-1.18-3.362-1.575-1.103-.358-2.571-.54-3.456-1.361-.781-.723-.798-1.687-.704-2.682.46.134.913.288 1.359.471-.029.775.155 1.385 1.545 1.981 1.164.498 2.333.971 3.406 1.584.444.507.858 1.031 1.212 1.583M876.994 6.997c0 .549-.734 1.207-1.198.657-.01-.012-.012-.027-.02-.04-.269-.218-.433-.504-.558-.835-.067-.176.057-.46.236-.532.599-.239 1.539-.052 1.54.75M878.695 15.305c-.025-.636.278-1.078.627-1.582.576-.83.966-1.678 1.125-2.595.143.75.214 1.51.226 2.27-.118.251-.246.508-.388.779-.495.933-.316 1.59.122 2.154-.079.375-.179.745-.29 1.113-.724-.82-1.406-1.702-1.422-2.14M876.667 16.752c-.44-.7-.803-1.451-1.15-2.2-.042-.091.069-.18.146-.106 1.284 1.226 3.89 3.502 2.021 5.305-1.228 1.185-3.2 1.46-4.762.848l.12.11c.706.674 1.306 1.478 2.377 1.564.762.061 1.76-.268 2.514-.603-.227.296-.468.583-.724.863-.78.308-1.683.414-2.404.23-1.71-.436-2.373-2.334-4.13-2.778-.138-.035-.135-.243.004-.273.565-.123 1.058.033 1.504.308a.108.108 0 0 1 .109-.002c1.361.724 3.494.511 4.592-.653.883-.936.344-1.722-.217-2.613" fill="#71CEFC"/><path d="M856.713 18.562c-.025-.098.115-.188.185-.101 1.201 1.505 2.432 2.908 4.458 3.226.08.014.16.005.241.012-2.392-.646-4.497-2.925-4.942-5.258-.034-.18.116-.274.253-.24.096-.147.358-.163.41.057.296 1.282 2.258 2.362 3.486 2.353.6-.004.967-.175 1.23-.442-.038-.021-.076-.034-.114-.065-1.725-1.43-3.237-3.554-3.327-5.86a2.075 2.075 0 0 1-.218-.825c-.065-1.24.683-2.692 1.176-3.787 1.008-2.24 2.597-5.435 5.255-6.018.195-.043.275.205.121.31-1.983 1.346-3.059 3.528-3.973 5.677a21.163 21.163 0 0 1 1.771-1.392c.826-.593 1.743-1.093 2.703-1.413a1.506 1.506 0 0 1-.61-.379c-.151-.156-.232-.41-.159-.62.335-.973.965-.8 1.78-1.261.917-.168 1.106-.902.58-2.193.625-.014 1.249.005 1.869.078.233.504.296 1.073.074 1.624-.176.434-1.716 1.815-2.516 1.864.407.167 1.028.393 1.473.565a5.27 5.27 0 0 1 1.331.268c1.44.509 2.685 1.587 2.997 3.048.031.074.062.149.09.222.166.435.31.904.166 1.365-.001.007-.008.01-.01.017.086.145-.134.288-.252.173-.008-.008-.016-.013-.022-.02-.075-.01-.146-.04-.189-.117-.016-.026-.026-.054-.04-.082-1.388-1.227-3.154-1.811-4.92-1.525.845.2 1.593.72 2.087 1.656.087.167-.006.303-.14.357.078.095.162.186.234.286.721.999 1.093 2.201 1.222 3.417.08.756-.058 1.568.151 2.31.238.794.703 1.409 1.395 1.842 1.199.826 1.416.342.653-1.455-.101.05-.2-.076-.118-.16 1.79-1.81 3.943 3.164.466 2.535-1.698-.307-2.783-1.637-3.062-3.267-.335-1.959-.302-3.582-1.805-5.155-.717-.75-1.575-1.216-2.497-1.556a3.808 3.808 0 0 0-.833.2c-1.209.444-2.423 1.535-2.806 2.793-.649 2.133 3.274 5.975 4.762 4.586.005-.02.008-.04.014-.06a.431.431 0 0 1 .244-.283c.05-.093.097-.194.135-.31.06-.177.304-.135.314.044.006.104.005.202-.001.295a.473.473 0 0 1 .211.268c.304.994.685 1.97.305 2.917.214.89.05 1.833-.687 2.589-.83.849-1.925 1.365-3.018 1.783-.75.285-1.546.757-2.192.108-.116-.117.008-.296.158-.263 1.129.248 2.825-1.532 3.618-2.226l.015-.014c-.177.092-.355.184-.539.263-1.117.79-2.504 1.283-3.67 1.165-2.15-.218-4.431-1.796-4.973-3.926" fill="#71CEFC"/><path d="M863.815 2.865c.066-.177-.174-.375-.37-.297-.503.2-.952.47-1.355.787.754-.847 1.647-1.507 2.716-1.742.194-.043.275.206.121.31-.41.279-.773.6-1.112.942" fill="#71CEFC"/><path d="M864.414 17.954a7.592 7.592 0 0 1-1.824 1.183c-.197.09-.117.435.104.417a7.78 7.78 0 0 0 2.775-.718c.286-.136 1.103-.846 1.422-.828.12-.311.15-.258.092.159-.021.3-.074.594-.16.88-.526 2.037-2.292 4.415-4.535 4.66a1.163 1.163 0 0 1-.184-.144c-.116-.116.008-.296.158-.264 1.129.25 2.825-1.532 3.618-2.226l.015-.013c-.177.092-.355.185-.539.263-1.116.79-2.504 1.283-3.67 1.164-2.15-.217-4.431-1.795-4.973-3.924-.025-.099.115-.19.185-.102 1.201 1.505 2.432 2.908 4.458 3.227.08.012.16.004.241.011-2.392-.646-4.497-2.925-4.942-5.258-.034-.179.116-.274.253-.24.096-.147.359-.163.41.057.297 1.282 2.257 2.363 3.486 2.354.6-.006.966-.176 1.23-.443-.038-.02-.077-.034-.114-.065-1.725-1.43-3.237-3.555-3.327-5.86a2.072 2.072 0 0 1-.218-.825c-.066-1.24.683-2.692 1.175-3.787.083-.182.17-.372.26-.565-1.081 4.163.661 9.638 4.604 10.887" fill="#00B3FF"/><path d="M860.228 3.196c-.08.23-.074.579-.283.757-.525.45-1.206.18-1.441-.317a13.38 13.38 0 0 1 2.626-1.802c-.396.4-.714.818-.902 1.362M876.405 12.668c-.205.018-.392.04-.522.04-.434-.002-.837-.146-.88-.627-.091-1.036 1.178-1.533 2.03-1.342.576.129 1.066.503 1.477.908.352.346.905.846.585 1.385-.21.352-.62.409-1.006.36a.254.254 0 0 1-.313-.06 2.6 2.6 0 0 1-.91-.444 2.501 2.501 0 0 1-.461-.22" fill="#71CEFC"/><path d="M856.62 6.668c.288-.106.644.021.832.293.636.92.099 1.37-.419 2.097-.515.726-.203 1.951-.972 2.52-.956.71-1.476-.169-1.724-1.142.09-.362.19-.72.312-1.075.05.26.092.523.146.789.033.163.076.706.214.782l1.028-.26c.048-.207.073-.415.076-.626.054-.697.422-1.488.276-2.166a.843.843 0 0 1-.333-.314c-.148-.244-.14-.537-.18-.805 0-.004-.002-.006-.003-.01.164-.268.33-.535.514-.793.125.24.166.463.233.71" fill="#00B3FF"/><path d="M868.878 21.112c.034-.256.093-.51.204-.756.115-.255.502-.154.564.082.519 1.983.815 3.773 3.17 4.368.429.11.866.183 1.306.236a13.365 13.365 0 0 1-5.172 1.75c-.923-1.826-1.094-4.097-.072-5.68" fill="#71CEFC"/><path d="M862.805 26.115l.313-.061c-.094-.832.832-.998 1.453-1.32.894-.463 1.345-1.524 2.428-1.55.26-.007.547.255.513.526-.089.697-.348 2.43-1.051 3.154a13.416 13.416 0 0 1-3.656-.749" fill="#00B3FF"/><g><g transform="translate(793.287 327.223)"><mask id="j" fill="#fff"><use xlink:href="#i"/></mask><use fill="#00B3FF" xlink:href="#i"/><path d="M4.851 42.292c0-3.306 1.042-5.236 2.887-6.876 1.845-1.64 9.011-4.148 17.36-2.9 8.35 1.25 12.755 5.281 16.315 6.882 3.56 1.6 9.504-2.559 10.108-6.227.605-3.668-6.145 21.078-6.548 21.218-.403.141-25.508 8.32-28.055 7.035C14.371 60.14 4.851 45.597 4.851 42.292z" fill="#2C8CF4" mask="url(#j)"/></g><path d="M828.437 340.095c.75.082 1.486.327 2.25.834.033.021.06.047.093.069l.372.168c.354.165.633.542.698.935.478.798.488 1.717-.325 2.567-3.188 3.33-8.402 1.296-11.179-1.334-.491-.467-.565-1.077-.153-1.623 2.043-2.719 5.292-2.55 8.244-1.616M826.8 332.078c.328.884-.975 1.35-1.674.706-.079-.072-.13-.148-.183-.223-.009 0-.005-.002-.017 0-.098.014-.212.004-.306.047-.873.401-1.998-.424-1.258-1.122.984-.925 2.996-.596 3.437.592M811.29 333.862c1.373-.362 2.846-.333 4.324.147.675.219.715 1.149.363 1.637-1.01 1.392-3.504 2.952-5.437 2.562-.874.298-1.84.292-2.744-.178-.603-.314-.913-1.213-.393-1.775.017-.017.036-.031.053-.05-.055-1.874 2.221-2.257 3.833-2.343M815.578 328.891c.408.032.805.28 1.108.51 0-.003 0-.004.004-.006-.01-.017-.016-.032-.026-.051-.079-.12.013-.302.149-.37l.132-.068c.165-.084.395-.119.576-.041.12.05.215.108.304.173.258.1.422.31.47.53.448 2.055-3.96 1.663-3.685-.132.057-.373.534-.58.968-.545M801.551 343.165c.1.085.159.308.2.59-.629-.193-1.282-.208-1.865.101a1.75 1.75 0 0 0-.29.2c.557-.643 1.42-1.35 1.955-.89m-4.279 5.48c.253.39.564.716.871 1.066.785.885.775.348.297 1.325-.37.753-1.021 1.24-1.205 2.14-.312 1.522.38 3.172 1.792 3.948 1.39.763 3.238.583 4.394-.494.826-.767 1.179-1.887 1.714-2.833.171-.303.363-.593.555-.88 1.843-1.253 3.965-2.289 5.064-4.29.304-.556-.031-1.307-.605-1.552-1.279-.543-2.583-.67-3.905-1.064-2.076-.62-1.886-1.647-2.25-3.332-.294-1.358-1.2-2.209-2.695-2.133-4.048.203-6.03 5.009-4.027 8.1M811.61 354.98a.745.745 0 0 1 .684.068c.15-.02.305-.019.468.017 1.201.26 1.799 2.06.794 3.008-.796.75-2.049.808-2.828-.007-.914-.957-.068-2.706.882-3.086M823.128 356.311c.348.433.73.898 1.293 1.004l.045.002a1.957 1.957 0 0 1-.402-.657.922.922 0 0 1 .145-.866c.763-.921 1.777.298 2.322.832.338.328.384.723.252 1.162-.285.966-1.315 1.5-2.235 1.386-1.152-.142-1.802-1.22-2.383-2.158-.42-.675.482-1.305.963-.705M814.998 344.087c.54.472 1.524-.041 1.439-.637l-.007-.025c.29-.197.413-.577.166-.842.133.143-.128-.15-.158-.176a.93.93 0 0 0-.33-.197c-.28-.102-.661-.102-.91.068-.68.472-.83 1.258-.2 1.809M838.96 350.773c.26-.172.574-.122.818.033.576.366 1.252.894.749 1.59-.338.469-1.082.566-1.446.073-.006-.008-.006-.016-.011-.023-.13.055-.272.088-.433.087-.293 0-.57-.164-.594-.457-.049-.597.427-.98.916-1.303M835.933 342.157c1.484.328 1.9 2.168 1.326 3.489-.685 1.578-2.37 2.233-3.917 2.353-.677.052-.879-.943-.255-1.21.766-.325 1.673-.506 2.314-1.085.714-.646.617-1.57-.085-2.13-.602-.48-.117-1.58.617-1.417M832.526 335.764c.19.042.347.107.495.181.1-.051.21-.092.333-.113 1.52-.25 3.121.345 4.002 1.535.209.282.207.72-.047.98-.09.092-.176.187-.265.28a.74.74 0 0 1-.546.578c-.415.437-.84.863-1.333 1.229-.474.348-1.136-.209-.89-.696.108-.213.23-.42.36-.621-1.204-.46-2.87-1.322-2.986-2.592-.04-.429.397-.869.877-.761M830.44 333.724c1.007-.52 1.742 1.002.702 1.36-.36.123-.714.137-1.094.129-.383-.008-.72-.453-.412-.79.24-.265.484-.535.804-.7M820.537 333.838c1.58-.355 3.238-.292 4.74.252.488.177.694.736.306 1.067-.682.581-1.626.96-2.597 1.046a.97.97 0 0 1-.277.067 2.935 2.935 0 0 1-1.715-.366c-.034-.015-.069-.022-.101-.037a.48.48 0 0 1-.2-.169 2.155 2.155 0 0 1-.755-1.113c-.08-.291.246-.668.6-.747M824.78 347.404c.087-.19.45-.271.623-.071.726.85 2.316.814 2.885 1.895.601 1.144-.589 2.046-1.727 2.333-2.698.682-5.562-.771-6.584-3.019-.1-.219-.056-.557.144-.726 1.387-1.18 3.088-1.021 4.659-.412M814.126 354.28c.57 1.119 1.888 1.705 3.185 1.673a2.013 2.013 0 0 0 1.713-.453c.25-.145.482-.32.686-.536.309-.327.274-.792-.03-1.106a1.438 1.438 0 0 0-.174-.48c-.438-.754-1.17-1.01-1.969-1.009a1.825 1.825 0 0 0-.692-.103.706.706 0 0 0-.51.265 7.613 7.613 0 0 0-1.858.79c-.325.193-.518.63-.35.958M838.29 359.6c.315.38.267.876.08 1.302.02-.066.054-.127.04-.198-.115-.569-.54-.478-1.036-.576-.227-.046-.572-.26-.517-.507.123-.564 1.172-.338 1.433-.02m-2.626 1.093c.493.702 1.645 1.185 2.446.583.054-.04.094-.099.14-.15-.02.033-.034.07-.054.1-.296.435.506.865.837.47.647-.771.85-1.858.236-2.705-.606-.838-1.874-1.101-2.857-.65-.987.453-1.34 1.51-.748 2.352M827.38 366.547c.073.825-1.028 1.589-1.653.897l-.29-.323c-.219-.24-.243-.498-.07-.779l.232-.37c.497-.802 1.71-.246 1.782.575M830.821 364.977c-.006-.014.017.01.065.065.066-.102.117-.213.148-.342.049-.194.358-.273.42-.04.048.18.117.345.15.525.014.08.01.407-.004.37.147.384-.07.933-.482 1.043-1.016.274-2.045-.62-1.404-1.65.274-.441.82-.291 1.107.03M810.224 363.53c.864-.268 1.85.15 2.158 1.243.296 1.05-.215 2.038-1.038 2.38-.423.177-.752-.542-.365-.855.018-.015.03-.036.047-.053-.68-.225-1.114-1.088-1.218-1.924-.04-.308.158-.711.416-.792M804.952 361.841c.06.13.073.273.033.41-.187.68-.935.927-1.372.33l-.13-.181a.435.435 0 0 1-.037-.415l.1-.204c.331-.674 1.107-.57 1.406.06M819.669 367.766c.883.392.899 1.414 1.284 2.162.192.374-.397.61-.64.319-.512-.611-1.45-1.037-1.453-1.928-.001-.404.389-.738.809-.553M814.74 369.851c.929.121 1.207 1.309.604 1.935a.578.578 0 0 1-.647.147.353.353 0 0 0-.044.014c-.331.057-.463-.38-.259-.577.009-.176.023-.376-.004-.39-.557-.337-.371-1.223.35-1.129M798.75 361.683c.63.476.505 1.677-.328 1.764-.835.086-1.147-1.069-.599-1.668.108-.56.734-.626.926-.096" fill="#0074EF"/></g><g><g transform="translate(392.648 360.255)"><mask id="l" fill="#fff"><use xlink:href="#k"/></mask><use fill="#4949E7" xlink:href="#k"/><path d="M.275 19.347c0-.3.604-6.83 5.005-5.453 4.4 1.377 6.364 4.171 9.587 5.453s13.583 6.017 14.71-4.493c.75-7.007 2.365-1.27 4.842 17.21-21.783 2.718-32.737 3.848-32.86 3.39C1.371 34.77.274 19.648.274 19.348z" fill="#3636CC" mask="url(#l)"/></g><path d="M402.195 376.83c-1.667.562-2.3 2.434-1.698 4.087.766 2.101 2.902 1.905 4.253 3.312-1.473-.345-2.96-1.026-4.278-1.684-.808-.403-1.497-.898-2.092-1.552-.02-.026-.04-.049-.057-.075-1.376-1.91-2.198-4.853-.301-6.723 1.906-1.88 4.738-1.49 7.044-.776 3.066.95 6.268 2.117 9.502 1.281 2.812-.728 4.9-3.16 4.904-6.046-.016-.025-.028-.05-.044-.077-.049-.078-.018-.146.036-.182-.002-.05-.007-.1-.01-.149.236.281.44.57.607.867.824 1.87-.218 4.083-1.705 5.344-1.984 1.684-4.688 2.535-7.22 2.79a15.44 15.44 0 0 1-4.24-.171c-1.544-.273-3.154-.77-4.701-.247" fill="#8080F1"/><path d="M393.72 377.437a7.284 7.284 0 0 1 2.84-5.455c4.653-3.558 9.879.554 14.899.13 1.316-.11 2.668-.596 3.635-1.524 1.201-1.154 1.318-2.712 1.355-4.293.002-.069.03-.13.071-.18.4.062.773.24 1.094.503.74 1.348.806 3.004.181 4.436-.784 1.798-2.544 2.775-4.42 3.006-4.965.611-10.302-3.894-14.921-.67-2.66 1.857-3.44 5.424-1.98 8.295.091.181-.02.414-.236.413-2.105-.018-2.59-3.053-2.518-4.661" fill="#5F5FF6"/><path d="M402.173 369.873c1.43.482 3.11.526 4.602.497 2.465-.047 4.828-.628 6.352-2.783 1.209-1.711-1.553-2.804-2.896-2.574-.424.073-.915.249-1.17.625-.353.521.108 1.277-.496 1.654-.645.402-2.232.193-2.797-.245-.777-.604-.483-1.18-.68-1.95-.243-.95-1.626-.521-2.2-.198-1.005.567-2.105 1.84-2.238 3.03-.113 1.016.653 1.65 1.523 1.944" fill="#8080F1"/><path d="M406.787 362.528c-.307.132-.541.373-.786.638-.212.231-.406.309-.588.28a.932.932 0 0 1-.506-.749c-.052-.488.265-.78.615-.827.641-.087 1.406.185 2.043.314-.025.206-.597.266-.778.344" fill="#4949E7"/><path d="M395.334 371.361c-.464.415-.896.872-1.3 1.4l-.014.073a1.575 1.575 0 0 1-.202.207c-.18-.603-.084-1.307-.031-1.951.626-2.033 2.18-3.901 3.69-5.192a20.037 20.037 0 0 1 3.72-2.525c.663-.346 2.226-.712 2.878-.204.75.588-.116.921-.617 1.205a8.776 8.776 0 0 0-2.31 1.874c-.482.56-.746 1.239-1.258 1.786-.581.62-1.307 1.098-2.034 1.534-.928.557-1.766 1.116-2.522 1.793" fill="#5F5FF6"/><path d="M406.117 364.013c2.688.72 5.791 1.345 8.57.87.215.101.463-.206.264-.408-2.395-2.407-6.125-2.782-8.885-.876-.146.102-.132.365.05.414" fill="#8080F1"/><path d="M409.669 381.694a.164.164 0 0 0 .08-.02c2.09-1.122 4.465-1.39 6.619-2.335 1.472-.647 2.359-1.65 2.93-3.101.086.069.175.133.266.193 1.069 1.792 1.001 3.992.09 5.849-.836 1.704-2.603 3.74-4.58 4.044-1.098.171-2.198-.3-3.152-.802-.902-.475-1.998-1.128-2.517-2.045-.442-.78-.232-1.352.264-1.783" fill="#5F5FF6"/></g><g><g transform="translate(866.276 147.783)"><mask id="n" fill="#fff"><use xlink:href="#m"/></mask><use fill="#69E781" xlink:href="#m"/><path d="M-.599 13.201c5.876-2.362 11.44-2.362 16.69 0 7.876 3.544 8.414 8.867 8.912 10.343.497 1.476.288 5.92-.9 7.625-1.187 1.706-8.866 6.34-12.333 4.615-3.467-1.724-15.18-5.16-15.035-6.163.096-.669.984-6.142 2.666-16.42z" fill="#4AD295" mask="url(#n)"/></g><path d="M873.604 169.853c-.143-.747-.113-1.576-.369-2.296-.453-1.27-1.647-1.922-2.489-2.927.044-.113.065-.232.095-.347-.312.099-.62.208-.927.327.916 1.169 2.18 2.55 1.945 3.99-.035.211-.34.275-.397.037-.34-1.41-1.308-2.352-2.359-3.243-.003.084-.01.165.003.27.06.54.298 1.062.528 1.546.376.789.87 1.52 1.207 2.325.028.066-.058.11-.098.051-.453-.64-2.42-3.303-2.317-4.76l-.066-.054c-.314-.263-.216-.917.17-1.067 1.18-.455 2.506-.613 3.77-.526l.083.006c.08-.003.159.01.238.01-.02.194.125.398.37.354.438-.077.851-.14 1.253-.178.136.029.273.043.41.08 1.184.327 2.219.983 3.192 1.728-.438-.096-.867.303-.645.81a27.354 27.354 0 0 0 3.095 5.335 31.097 31.097 0 0 0-4.275-1.11c-.547-.099-.974.482-.578.938a20.044 20.044 0 0 0 1.651 1.685c-.004 0-.004.004 0 .006-2.342-1.862-2.154.312-3.082-1.583-.266-.543-.3-.844-.408-1.407m-5.44 1.538a15.752 15.752 0 0 0 5.903 6.13c.65-.155 1.312-.294 1.983-.362.77-.301 1.55-.536 2.346-.576.949-.049 1.75.387 2.667.29.913-.097 1.385-.714 2.218-.937 1.18-.315 2.057.562 2.908 1.296.542.467 1.044.968 1.537 1.478a15.88 15.88 0 0 0 1.905-.85 15.757 15.757 0 0 0 6.864-7.299 5.204 5.204 0 0 0-.81-.781c-1.687-1.262-2.945-.426-2.963 1.556-.008.884.1 1.779-.116 2.652-.294 1.197-1.665 3.214-3.23 1.744-1.05-.987-.664-3.107-1.665-4.263-.996-1.151-2.78-1.634-4.073-2.358a34.665 34.665 0 0 1-2.454-1.533c1.311 2.128 2.836 3.97 5.298 5.219.097.05.023.22-.079.177-2.592-1.101-4.711-2.902-6.302-5.234-.648-.948-1.178-2.074-1.792-3.126.826.6 1.594 1.302 2.358 1.954.122.103.287-.048.181-.173-1.098-1.288-2.993-3.1-4.972-3.719a10.16 10.16 0 0 0-.934-.477 4.769 4.769 0 0 1 1.847.167c1.387.404 2.403 1.284 3.606 2.017.2.12.372-.135.243-.3-.89-1.128-2.502-2.188-4.194-2.692.977-.177 1.958-.144 2.944-.08.208.014.241-.283.057-.347-1.376-.478-3.468-.547-4.99.1-.013-.022-.025-.046-.048-.057-.252-.123-.497-.034-.764.024-.388.085-.738.222-1.14.227-.178.002-.223.169-.156.282-.193-.017-.388-.037-.58-.038-.026-.022-.054-.04-.083-.039a1.024 1.024 0 0 0-.245.04c-.213.007-.42.03-.624.062.471-1.007.71-2.274.407-3.184-.173-.522-.575-.75-.978-1.029.358.733.431 1.697.284 2.425-.198.972-1.065 1.9-2.13 1.682-.198-.041-.216-.344-.043-.428.402-.195.843-.26 1.155-.613.282-.319.394-.748.425-1.165.06-.823-.225-1.573-.282-2.38 0-.007.005-.011.005-.017-.099-.11-.175-.226-.238-.345-.488.38-.851.86-.893 1.582-.061 1.073-.012 1.836-1.13 2.327a.108.108 0 0 1-.102-.19c1.491-.985-.01-2.587.886-3.808.363-.496 1.01-.987 1.706-1.339.07-.078.135-.152.183-.22.07-.1.066-.22.03-.33.438-.39.826-.836 1.281-1.201.426-.547.939-.691 1.536-.436-.039.227-.062.455-.067.684-.04.994.17 1.98.742 2.805.781 1.128 1.672 1.67 1.99 2.999-.008.201.02.303.133.52.211.407.916.377 1.02-.102.195-.89.084-1.637-.224-2.334.579.391 1.1.855 1.423 1.633.058.138.28.077.28-.066-.003-.92-.497-1.522-1.187-2.094-.622-.512-1.358-.89-1.878-1.516-.475-.79-.41-1.425-.486-2.465-.04-.525-.172-.959-.56-1.329-.457-.433-1.006-.494-1.537-.358-6.122 4.632-8.146 13.144-4.401 20.118" fill="#2BC48A"/><path d="M874.102 151.63c.389.371.522.804.561 1.33.076 1.04.01 1.675.486 2.465.52.626 1.256 1.003 1.877 1.516.69.571 1.186 1.175 1.19 2.094 0 .142-.224.204-.282.065-.324-.778-.845-1.24-1.423-1.632.308.696.42 1.443.225 2.334-.105.478-.81.508-1.021.102-.113-.217-.142-.32-.133-.52-.318-1.329-1.208-1.872-1.99-3-.572-.824-.782-1.81-.742-2.804.005-.23.028-.457.067-.683-.598-.256-1.11-.111-1.536.434-.455.364-.843.812-1.28 1.203.035.11.04.228-.032.33a2.653 2.653 0 0 1-.183.22c-.695.35-1.342.843-1.706 1.338-.044.06-.079.123-.111.185a15.795 15.795 0 0 1 4.497-5.333c.53-.137 1.08-.076 1.536.357" fill="#8DF690"/><path d="M876.444 161.391c.24.071.474.156.707.247-3.39-.117-6.76.878-10.163.98-.387.01-.684.404-.482.771.792 1.44 1.345 2.978 2.02 4.468-.713.049-1.312-.079-1.822-.337a15.839 15.839 0 0 1 1.304-10.783c-.487 1.17.653 2.59-.714 3.493-.115.076-.025.246.103.19 1.117-.49 1.07-1.254 1.13-2.328.042-.72.405-1.2.893-1.581.063.12.14.236.238.345-.001.006-.005.01-.005.016.057.808.341 1.558.282 2.382-.03.416-.143.845-.426 1.164-.31.353-.752.417-1.154.614-.174.083-.155.386.042.427 1.066.217 1.933-.71 2.13-1.681.148-.73.075-1.694-.283-2.426.403.279.805.507.978 1.029.303.91.063 2.177-.408 3.183.205-.03.412-.054.624-.062.08-.021.162-.036.246-.039.03-.002.057.018.082.038.193.002.388.02.581.038-.067-.112-.023-.278.156-.28.401-.005.753-.143 1.14-.227.267-.06.512-.147.764-.025.022.011.035.034.047.057 1.523-.647 3.615-.579 4.991-.1.184.065.151.36-.057.346-.986-.064-1.967-.096-2.944.081M892.491 174.349c.047-.126.088-.247.116-.36.215-.875.107-1.769.115-2.653.018-1.982 1.275-2.818 2.964-1.557.295.222.56.492.81.782-.26.56-.563 1.1-.886 1.63-1.492-.552-2.307.946-3.119 2.158" fill="#8DF690"/><path d="M882.892 177.83c-1.054.016-2.02.222-3.071-.05-.5-.128-.96-.326-1.443-.474a4.39 4.39 0 0 1 1.051.067c1.115.223 1.496.548 2.618.01 1.041-.498 1.499-1.22 2.797-.617.915.425 1.73 1.314 2.459 2.094-.443.154-.89.286-1.339.399-.872-.837-1.841-1.447-3.072-1.429" fill="#00AF80"/><path d="M875.219 178.142c.305-.117.61-.234.916-.342.854-.072 1.709-.059 2.603.217.936.289 1.604.556 2.604.571 1.603.022 2.66-.216 3.92.844a15.868 15.868 0 0 1-10.043-1.29" fill="#00AF80"/><path d="M897.066 169.157c.115-1.4-.282-2.973-.922-4.019-.103-.17-.206-.33-.307-.488.222.51.434 1.026.58 1.573.212.801.493 1.73-.183 2.358-.037.035-.113-.003-.09-.057.543-1.263-.237-2.872-.784-4.01-.11-.229-.246-.455-.38-.682.094 1.42.59 2.959.044 4.197-.04.092-.202.09-.19-.031.147-1.347-.301-2.926-.49-4.266-.106-.74-.33-1.607-.03-2.33.096-.228.236-.411.392-.58.074-.241.217-.453.475-.68.29-.251.717-.27 1.04-.463.412-.247.682-.553.903-.888.31.91.534 1.832.672 2.76-.24.186-.529.345-.778.393-.104.02-.215-.079-.175-.189.054-.15.16-.268.214-.414.066-.178.092-.381.156-.565.008-.024.01-.049.018-.073-.794.61-1.428.98-.574 2.516.51.919.958 1.435 1.252 2.21a15.86 15.86 0 0 1-.843 3.728M880.892 148.094c-.137 1.051-1.502 2.38-1.03 3.341.293.598 1.293 1.112.827 1.936-.307.545-1.245.744-2.072.927-.323.259-.684.474-1.05.62-.178.07-.407-.105-.281-.296-.137-.071-.207-.262-.076-.404a2.41 2.41 0 0 1 .744-.522c.016-.03.036-.058.048-.087.581-1.465-.036-1.508-.77-2.003-.629-.423-1.11-.888-1.381-1.615-.07-.189-.12-.379-.153-.57a15.76 15.76 0 0 1 5.194-1.327M885.466 166.64c-.555-.194-.77-.844-.866-1.376-.023-.128.154-.255.248-.133.211.368.557.553 1.036.554.037-.06.073-.121.108-.182.121-.084.186-.242.32-.321.356-.21.767-.133 1.095.083.405.267.524.692.755 1.096.219.383.5.65.829.845a13.665 13.665 0 0 0-.143-.935c-.074-.394-.268-.864-.235-1.268.034-.42.239-.62.649-.625.197-.002.195.268.03.322-.506.17.889 2.875 1.103 3.219.317.513-.267 1.245-.84 1.025-.655-.252-1.21-.606-1.678-1.137a4.089 4.089 0 0 1-.58-.819c-.195-.376-.191-.896-.675-.729-.162.056-.298.321-.507.39-.208.07-.443.062-.65-.01M882.005 161.794c-.62.26-1.564-.418-1.03-1.09.536-.678 1.59-1.645 2.507-1.618.29.009.568.21.684.48.464.37.88.793 1.108 1.357.167.414-.338.88-.684.495-.252-.28-.512-.603-.837-.813-.142.11-.289.21-.409.302-.424.324-.842.68-1.339.887M884.328 151.413c-.055.39-.64.51-.732.07a5.076 5.076 0 0 1-.054-.31c-1.023-.905-1.252-2.046-.921-3.114.373.012.747.023 1.118.062-.003.006-.008.01-.012.016-.289.55-.298 1.046-.206 1.542.063-.562.212-1.101.464-1.521.485.057.967.135 1.442.237-.438.033-.8.297-.919.93-.128.687-.083 1.399-.18 2.088" fill="#ABFFAD"/><path d="M883.393 153.779c.348.09.674.17.979.368.475.308 1.017.997.845 1.591-.055.19-.28.217-.414.099-.249-.22-.36-.537-.625-.758-.268-.222-.559-.33-.896-.404-.512-.11-1.09-.24-1.111-.863-.006-.166.175-.345.345-.32.308.044.576.208.877.287" fill="#8DF690"/><path d="M896.547 157.339a2.006 2.006 0 0 1-1.29.092c-1.294-.33-2.455-1.654-3.434-2.49l-.107-.09c1.118 1.373 1.828 3.292 2.417 4.707.063.15-.14.265-.227.122-.907-1.518-1.679-3.45-3.03-4.662.656 1.46.909 3.151.704 4.54-.27 1.839-2.153 3.785-3.9 2.213-.12-.109.04-.26.163-.203 2.714 1.23 3.18-1.81 2.932-3.401a11.835 11.835 0 0 0-.405-1.673c-.5-1.597-1.38-2.748-2.585-3.89-.12-.113-.113-.289-.038-.422l-.015.007a.956.956 0 0 1 .046-.192c0-.136.088-.307.118-.442.097-.435.135-.889.105-1.334-.005-.067-.02-.13-.03-.194-.313-.514-.796-.917-1.312-1.252-.076-.049-.155-.09-.232-.13 3.997 1.126 7.552 3.8 9.672 7.75.167.31.304.628.448.944" fill="#ABFFAD"/></g></g><g transform="translate(546.467 -26)"><path d="M160.841 330.046c-14.143.707-29.347 7.78-35.358 8.84-6.011 1.062 10.607 2.822 8.84 4.598-1.766 1.776-4.243 8.132 19.802 8.486 24.044.354 19.801-3.536 32.176-4.95 12.375-1.414 29.347-1.41 26.872-5.657-2.475-4.246 13.082-2.12 13.082-6.718 0-4.597-18.026-6.011-26.165-6.011-8.14 0-12.73 3.536-18.026 3.182-5.296-.355-21.223-1.77-21.223-1.77zM37.44 349.14c-4.93.449-15.204 4.95-6.011 5.305 9.193.354 13.082-1.41 18.025-1.41 4.944 0 6.718 1.767 15.911 0 9.193-1.769 12.383-1.769 17.68-3.537 5.296-1.768 7.072-2.821 14.85-3.182 7.777-.36 19.8 1.41 19.447-1.061-.355-2.472-3.89-3.889-16.266-3.536-12.376.352-8.84.354-23.336.354-14.495 0-21.215-.354-28.286.707-7.07 1.061-4.235 5.654-12.014 6.36z" fill="#E3E9ED" fill-rule="nonzero"/><path d="M112.172 297.539c2.709 1.643 4.364 5.287 5.143 12.405" stroke="#BAC8D3" stroke-width="2" stroke-linecap="round"/><path d="M205.638 202.557c-.156-.36-1.865-4.46-3.058-10.45-.554-2.79-1.006-7.68-2.81-12.273-.47-1.212-4.058-9.248-5.519-11.972-.843-1.946-3.825 9.594-3.846 14.585-.013 2.65.021 5.305.252 7.947.11 1.254 7.49 17.02 7.381 17.712-.086.534.324 1.755 2.165 2.946 1.724 1.116 3.776-.086 5.486-1.71 1.177-1.135 1.067-4.288-.05-6.785z" fill="#B3B3FC" fill-rule="nonzero"/><path d="M216.035 216.167c.146-.383-.486-1.064-1.166-1.567-.892-.975-1.254-2.059-1.947-3.175-.736-1.175-1.645-2.207-2.497-3.299-.85-1.093-3.042-2.842-4.127-3.729-1.603-1.312-5.442.43-6.812 1.193-1.238.688-1.77 3.392-1.602 5.727.048 2.053.36 4.092.93 6.065.82 2.832 6.1 4.724 7.398 4.211 1.273-.501 3.168-1.2 3.789-2.434.652-1.295-.784-4.522-.972-5.914.157.188 2.418 2.822 3.407 3.408.226.132 2.87 1.426 3.6-.486zM181.028 252.259c-1.172-.7-10.753-2.522-14.378 3.958-1.45 2.59-3.367 8.266-3.668 9.434-.44 2.176-1.055 6.999-.962 9.775-.11 3.645.69 12.83 2.476 20.804.192.85 3.982 21.432.507 30.365-.121.313 1.713 2.407 3.163 3.014 1.478.617 6.326 1.097 8.08.544 3.793-1.2 5.868-4.223 5.453-4.493-3.235-2.098-4.278-8.72-4.278-10.061 0-1.34.065-2.665.118-3.947.639-8.3 1.742-16.557 3.304-24.734.126-.654 2.096-9.373 2.494-12.952.527-4.727.414-11.98 1.741-16.398.541-1.798-2.083-4.132-4.05-5.31z" fill="#B3B3FC" fill-rule="nonzero"/><path d="M201.638 338.248c.014-.327.066-1.39-1.181-2.387-.823-.658-4.929-2.229-5.916-2.644-5.702-2.395-8.364-5.36-10.246-7.007-1.544-1.35-2.808-3.006-4.486-4.17-.643-.627-2.424-1.167-3.718.252-1.107 1.212-1.724 2.84-2.16 4.434-.436 1.594-3.851 3.73-5.709 1.724-.873-.94-1.321-1.824-1.697-2.978-.157-.487-.94-1.914-1.58-1.31-.848.81-1 1.945-1.03 3.108-.036 1.41-.008 2.77-.256 4.165-.423 2.384-1.61 5.055 0 7.21.572.766 2.39 1.807 3.605 2.02 1.153.203 2.319.18 3.483.207 1.295.032 8.579.478 10.74.986 4.323.988 8.515 1.212 10.548 1.013 6.522-.65 9.334-2.088 9.603-4.623z" fill="#C7EBFF" fill-rule="nonzero"/><path d="M196.596 339.864a28.94 28.94 0 0 1-5.28.76c-.314.012-.628.016-.941.018-.384.022-.768.034-1.154.038-1.345.123-2.7.087-4.038-.106-1.786-.268-3.478-.94-5.21-1.427a23.954 23.954 0 0 0-5.4-.93c-1.82-.088-3.64.02-5.46-.055-1.896-.08-4.403.017-6.154-1.014.124.54.36 1.047.692 1.49.573.766 2.39 1.806 3.606 2.02 1.152.202 2.318.178 3.482.206 1.295.032 8.579.479 10.74.986 4.324.988 8.515 1.212 10.548 1.013 6.533-.643 9.345-2.08 9.616-4.616a29.794 29.794 0 0 1-5.047 1.617z" fill="#92CDFA" fill-rule="nonzero"/><path d="M166.517 229.954c-.514 3.365-.51 10.86-.546 14.264-.036 3.404-.14 6.8.278 10.166.183 1.48.67 2.839 1.232 4.246 2.108 5.284 10.083 4.317 11.478 3.972 3.11-.77 5.956-4.434 5.956-4.497 1.038-2.037 1.935-4.16 2.262-6.426a25.6 25.6 0 0 0 .234-4.734c-.134-3.114.578-6.343.804-7.317.754-3.261 1.611-6.522 2.01-9.846.654-5.413-23.034-4.251-23.708.172z" fill="#B3B3FC" fill-rule="nonzero"/><path d="M162.073 278.43c2.038-3.874 4.403-7.67 7.221-10.972.91-1.064 1.911-2.063 2.724-3.205.707-.996 1.182-2.15 1.58-3.292.83-2.39 1.308-4.884 1.85-7.351.156-.709.316-1.416.48-2.122-3.264.056-7.226 1.064-9.278 4.733-1.45 2.591-3.367 8.267-3.668 9.435-.44 2.175-1.055 6.998-.962 9.774-.025.77-.006 1.793.053 3z" fill="#8080F1" fill-rule="nonzero"/><path d="M167.482 258.629c.975 2.443 3.206 3.55 5.46 4 .249-.546.47-1.11.658-1.671.83-2.39 1.307-4.884 1.85-7.351.616-2.803 1.299-5.593 2-8.375.348-1.386.738-2.762 1.081-4.147.207-.834.314-1.725.695-2.508a2.821 2.821 0 0 1 1.772-1.452c1.21-.362 2.6-.348 3.848-.503a58.827 58.827 0 0 0 4.232-.67c.494-2.04.878-4.104 1.153-6.184.65-5.405-23.042-4.242-23.713.18-.514 3.365-.51 10.86-.545 14.264-.036 3.404-.14 6.8.277 10.166.184 1.486.67 2.843 1.232 4.25z" fill="#8080F1" fill-rule="nonzero"/><path d="M183.737 325.748s-2.862-.128-3.74 3.088M181.948 330.477s1.63-3.734 3.698-2.978M184.227 331.886c-.036-.285.848-2.788 2.351-3.359M185.724 332.742c.096-.271 2.003-2.395 3.605-2.235M187.721 333.847s1.426-2.351 2.568-2.567" stroke="#5EB2FC" stroke-width="2" stroke-linecap="round"/><path d="M190.774 336.563s.453-.388-1.663-1.724c-2.116-1.335-6.823-3.536-9.233-5.454-2.411-1.919-4.993-4.358-5.61-3.317" stroke="#92CDFA" stroke-width="2" stroke-linecap="round"/><path d="M172.473 221.3c-2.694-.404-18.919 1.098-20.292 7.11-.314 1.36-1.654 13.794-2.083 16.582-.43 2.789-.868 5.558-1.158 8.356-.145 1.387-.253 6.213.094 7.141.238 1.145 1.675 4.297 4.52 5.361 3.325 1.243 8.536 1.649 10.696-.213 2.938-2.785 4.725-6.64 6.189-10.414 2.105-5.427 3.761-11.007 5.555-16.541 1.007-3.123 1.916-6.861 2.744-10.032.25-.96.135-6.387-6.265-7.35z" fill="#D7D7FF" fill-rule="nonzero"/><path d="M160.603 252.594c-3.417-.99-9.704-1.135-11.044 1.674-.842 1.881-1.077 4.894-1.919 6.795-1.055 2.383-6.82 12.756-8.778 20.966-2.366 9.91-1.474 19.907.192 29.753.783 4.684 1.19 13.838 1.116 21.08-.046 4.424 3.43 5.24 5.956 5.195 1.445-.025 6.237-1.724 6.78-2.77.94-1.824.794-3.871.47-5.832-.979-6.025.421-24.57 3.324-36.322.865-3.505 4.477-17.106 5.408-20.043 1.17-3.693 2.373-7.502 4.774-10.608.487-.618-.981-8.349-6.28-9.888z" fill="#D7D7FF" fill-rule="nonzero"/><path d="M176.907 345.728c.014-.327.066-1.39-1.2-2.387-.837-.658-5.007-2.229-6.011-2.644-5.8-2.395-8.498-5.36-10.41-7.007-1.567-1.35-2.853-3.006-4.558-4.17-.652-.628-2.462-1.167-3.777.252-.91.98-1.491 2.232-1.917 3.52-.1.304-.193.61-.278.916-.47 1.601-3.918 3.728-5.8 1.724-.887-.94-1.341-1.825-1.724-2.978-.156-.488-.962-1.914-1.605-1.31-.862.81-1.015 1.944-1.045 3.107-.036 1.411-.008 2.77-.259 4.165-.43 2.384-1.636 5.055 0 7.21.582.767 2.427 1.808 3.657 2.02 1.171.203 2.351.18 3.538.208 1.315.031 8.716.478 10.912.986 4.39.987 8.646 1.166 10.717 1.012 1.93-.144 3.962-.268 5.85-.713 1.233-.301 3.636-1.375 3.91-3.91z" fill="#C7EBFF" fill-rule="nonzero"/><path d="M176.893 345.256a15.474 15.474 0 0 1-6.611 2.33c-1.555.18-3.135.123-4.703.087-1.744-.04-3.49-.133-5.222-.346-3.369-.412-6.635-1.484-10.032-1.67-2.998-.158-6.003 0-8.977-.517-1.178-.206-2.829-.554-3.865-1.421.014.867.303 1.707.825 2.4.581.766 2.426 1.807 3.656 2.02 1.171.202 2.352.179 3.538.207 1.315.031 8.717.478 10.913.986 4.388.987 8.646 1.166 10.716 1.012 1.93-.144 3.963-.268 5.85-.713 1.243-.293 3.646-1.367 3.918-3.903.012-.157.01-.315-.006-.472z" fill="#92CDFA" fill-rule="nonzero"/><path d="M157.665 332.278s-2.507 1.447-2.902 3.762M155.954 336.7s2.389-2.745 4.456-1.997M159.16 338.767c-.035-.285.678-2.46 2.176-3.03M160.786 339.457c.096-.271 1.706-1.898 3.3-1.74M163.014 340.8s.57-2.282 1.711-2.495" stroke="#5EB2FC" stroke-width="2" stroke-linecap="round"/><path d="M165.539 343.774s.94-.739-1.182-2.068c-2.122-1.329-7.185-3.74-9.596-5.66-2.41-1.92-5.113-3.804-5.73-2.763" stroke="#92CDFA" stroke-width="2" stroke-linecap="round"/><path d="M194.563 199.828c-.14-2.864-.704-5.682-1.395-8.464-.287-1.152-2.765-2.102-3.883-.82-.755.868-.83 2.105-1.06 3.179a31.233 31.233 0 0 1-1.169 4.02c-.992 2.762-2.288 5.399-3.517 8.058-1.207 2.61-2.317 5.26-3.266 7.976-1.134 3.236-1.4 12.152-1.3 13.235.146 1.586 11.3 2.735 11.794 1.01.923-3.322 2.092-6.584 2.907-9.933 1.154-4.745 1.144-13.018.889-18.261z" fill="#0161CD" fill-rule="nonzero"/><path d="M192.006 224.548c-1-.586-2.186.54-3.228.774-1.43.314-6.797.986-7.908.732-.502-.114-2.15-.598-2.276-.06-.213.911-1.867 7.324-1.34 8.026.526.702 2.782.649 3.932.674 3.775.086 7.982-.376 8.596-.784a2.821 2.821 0 0 0 1.306-1.606c.248-.818.172-2.525.674-4.292.266-.939 1.346-2.818.244-3.464z" fill="#2C8CF4" fill-rule="nonzero"/><path d="M191.782 193.075c-.156-2.078-4.443-4.448-6.056-4.98-2.613-.863-5.265-1.64-7.994-2.071-2.768-.44-10.76-1.59-13.242.125-4.433 3.067-8.583 6.983-11.456 11.46-3.085 4.807-4.176 10.377-3.86 16.033.176 3.135.874 11.818 2.653 12.45 2.263.804 21.652 4.2 24.087 4.583.686.108 3.291.242 4.006-1.367 1.802-4.084 5.016-10.605 7.21-14.083 3.93-6.206 5.137-15.576 4.652-22.15z" fill="#1273EB" fill-rule="nonzero"/><path d="M181.262 227.089c-.168-.32-.48-.54-.837-.591-.436-.078-5.464-.1-8.093-.356-2.685-.262-5.33-.784-7.974-1.332-2.489-.517-5.003-.997-7.414-1.823-1.174-.401-2.32-.881-3.515-1.218-.718-.204-1.532-.478-2.253-.314-1.135.243-1.675.637-1.595 1.634.064.793.227 1.567.186 2.362-.036.697-.2 1.382-.287 2.075-.156 1.21-.094 2.525.76 3.466.548.602 1.344.892 2.115 1.083 11.739 3.017 21.925 2.574 24.295 2.665.784.03 1.71.036 2.184-.703.164-.272.267-.577.304-.893.47-1.503 1.014-2.955 1.856-4.307.329-.524.6-1.146.268-1.748z" fill="#5EB2FC" fill-rule="nonzero"/><path d="M220.786 130.168c.164-.062.328-.13.492-.204l.047-.063c-.178.095-.358.184-.539.267z" fill="#B3B3FC" fill-rule="nonzero"/><path d="M199.157 152.625c-.812-3.292-3.567-5.664-5.387-8.429-.876-1.33-5.724-9.63-8.065-11.432-5.8-4.46-19.436-7.557-23.168-4.31-4.663 4.057-5.83 10.747-6.69 16.822-1.003 7.09-1.069 13.432 1.017 20.22.93 3.02 3.135 8.073 3.737 11.178a2.992 2.992 0 0 1-.33 1.79c-1.9 3.348-3.573 3.918-3.742 5.373-.138 1.182-.923 3.049 4.075 5.462.507.245 4.214 1.742 5.733 2.03 1.048.213 11.23 3.328 25.522 2.05 3.854-.344 6.132-3.832 5.834-6.74-.215-2.097-.856-4.174-1.371-6.214-1.582-6.27-1.449-14.968.428-17.952 2.264-3.612 2.86-8.015 2.407-9.848z" fill="#ABFFAD" fill-rule="nonzero"/><path d="M199.157 152.625c-.812-3.292-3.567-5.664-5.387-8.429-.36-.539-1.38-2.263-2.633-4.213-.383.13-.76.254-1.123.381-2.326.81-4.617 1.624-7.016 2.21-2.566.627-5.172 1.097-7.77 1.55-2.65.456-5.302.994-7.982 1.243a23.403 23.403 0 0 1-4.084.057 24.528 24.528 0 0 1-1.648-.204c-.157-.024-.424-.08-.627-.111a15.972 15.972 0 0 0 2.76 8.328 12.25 12.25 0 0 0 2.774 2.964c1.185.884 2.456 1.333 3.87 1.724 1.87.506 3.704.912 5.652.863 2.038-.05 4.076-.346 6.076-.713 3.804-.694 7.577-1.497 11.428-1.9a30.344 30.344 0 0 1 5.643-.134c.261-1.516.265-2.814.067-3.616z" fill="#8DF690" fill-rule="nonzero"/><path d="M184.823 86.087a20.595 20.595 0 0 0-1.798-3.292c-1.21-1.85-4.492-4.362-5.415-4.508h-.011c-.977-.291-1.861-.164-2.892.387-1.411.753-2.76 1.621-4.185 2.339-1.427.718-1.975 4.232-.314 5.132 2.094 1.124 12.05 5.213 13.265 5.614.803.265 2.206.762 2.256-.515a12.383 12.383 0 0 0-.906-5.157z" fill="#2D2DB0" fill-rule="nonzero"/><path d="M193.61 106.822c.014-.627-.644-.728-1.263-.6-.764.13-1.684.202-2.038-.47a.39.39 0 0 1 .179-.531 14.143 14.143 0 0 0 1.826-1.002l.022-.017c.603-.507.744-.77.5-1.315-.34-.757-.557-1.499-.94-2.209a.21.21 0 0 1 .147-.313c1.084-.077 1.501-1.127 1.542-1.555.04-.428-.187-.992-.64-1.373-.542-.456-3.272-1.367-4.487-2.605-1.358-1.384-2.022-3.325-3.107-4.935-.838-1.244-1.69-2.97-2.862-3.918-3.814-3.082-9.496-2.293-11.648-1.98h-.017a17.958 17.958 0 0 0-5.093 1.95c-1.62.926-5.634 3.663-7.68 7.981-2.901 6.113-1.428 13.176 2.795 18.27 2.12 2.558 7.147 4.518 7.712 7.869a.248.248 0 0 1 0 .063c-.207 2.384-1.822 4.525-3.225 6.393-.203.273.917 3.823 2.475 4.417 1.978.754 4.373.834 6.455.627 2.306-.226 5.206 1.326 7.331.47 1.494-.603 4.232-2.857 3.928-5.62-.304-2.7.094-5.42.826-7.838.157-.332.478-.971 1.056-1.254 1.541-.747 2.84-1.374 4.292-2.081 1.013-.494 1.947-1.356 2.428-3.577.221-1.036-.545-3.455-.514-4.847z" fill="#D7D7FF" fill-rule="nonzero"/><path d="M161.619 104.391c2.108.127 4.218.28 6.33.328a.854.854 0 0 1 .265-.075c2.008-.232 3.957-.925 5.579-2.15 2.716-2.048 4.232-5.286 5.086-8.496.821-3.07 1.111-6.256 1.148-9.427-3.48-1.371-7.468-.818-9.19-.567h-.018a17.958 17.958 0 0 0-5.092 1.95c-1.62.926-5.635 3.663-7.68 7.981-1.676 3.527-1.89 7.367-.961 10.972 1.42-.525 2.965-.61 4.533-.516zM171.11 111.954c-.541.132-1.836.097-2.018.72-.126.443-.043.92.226 1.294a.726.726 0 0 1 .4.038c1.714.627 3.329.125 4.545-1.221.433-.478.563-1.141.643-1.768.014-.11.022-.223.025-.336-.375.17-.76.316-1.152.44-.874.325-1.765.604-2.67.833z" fill="#B3B3FC" fill-rule="nonzero"/><path d="M175.586 81.071c-.314-.426-4.301-.078-6.047.157-1.48.202-2.978-.09-4.469-.157-2.566-.114-5.04.266-7.367 1.393-2.168 1.05-4.207 2.559-5.39 4.656-2.286 4.052-3.805 9.79-3.35 10.972.025.064 1.456 1.868 1.881 2.851 1.481 3.494 1.05 6.814 1.538 9.091.4 1.87 1.4 7.524 7.186 8.574 1.778.324 3.54.295 5.2-.313.313-.115 1.015-.411 1.337-.563-.08.697.021 1.625-.226 2.291-.392 1.052-1.862.613-2.593.203-.147-.083-.313.095-.218.218 1.035 1.363 4.032 1.672 5.425-.533.282-.447 1.538-1.145 1.768-6.093.06-1.273.167-2.546.223-3.818.047-1.05.053-2.105.166-3.15.113-1.046.538-1.858.964-2.799 1.646-.749 2.273-3.279 2.373-4.87.116-1.829-.484-4.132-.39-6.796a31.78 31.78 0 0 1 1.01-6.621c.244-.962.734-1.752 1.122-2.65.294-.671.324-1.422-.143-2.043z" fill="#3636CC" fill-rule="nonzero"/><path d="M173.539 104.844c-.638-.896-3.191-2.13-5.565-1.312-.744.254-1.354.8-1.69 1.511-.66 1.422-.278 3.642.437 4.982a5.362 5.362 0 0 0 3.774 2.685c1.503.252 3.5-.115 4.428-1.428.14-.167.26-.35.356-.547.078-.265-1.07-5.303-1.74-5.89z" fill="#D7D7FF" fill-rule="nonzero"/><path d="M150.433 116.133c-.716-2.271-1.948-4.362-2.451-6.704-.536-2.497-.108-4.967.084-7.473.09-1.16-.017-3.552-1.025-6.477-.94-2.721-4.06-4.57-5.93-4.262-2.45.4-4.51 1.644-6.114 3.514-1.486 1.734-3.563 6.692-1.763 13.112.519 1.848 1.744 3.516 3.135 4.892 1.335 4.038 3.204 4.773 4.276 6.113 1.841 2.3 1.48 4.994.484 6.088-.676.743-1.666 1.356-2.704 1.097-1-.243-1.567-1.265-2.077-2.08a.158.158 0 0 0-.291.122c1.055 3.84 3.594 3.919 4.56 3.985 1.097.069 2.108-.547 2.978-1.206 2.79.146 5.813-1.556 6.49-2.674.499-.823.952-3.605.931-4.51-.028-1.2-.224-2.391-.583-3.537z" fill="#3636CC" fill-rule="nonzero"/><path d="M149.275 92.53c-.859-.416-1.912-.014-2.488.684a2.083 2.083 0 0 0-.192.282c-.291.314-.498.696-.602 1.111-.2.783-.12 1.61.227 2.34.11.389.345.73.67.97.56.571 1.438 1.075 2.13.487.746-.627.731-2.217.826-3.115.094-.898.435-2.271-.571-2.758z" fill="#143B63" fill-rule="nonzero"/><path d="M177.92 82.84c-.627-2.673-2.146-3.37-2.383-3.515-.313-.185-.66-.132-.997-.168-.532-.058-.985-.338-1.47-.547-.67-.288-1.539-.54-2.211-.114-2.058 1.304-2.308 3.291-2.488 4.642a15.552 15.552 0 0 0 .38 6.104c.628 2.194 1.51 4.36 2.374 6.472.683 1.676 1.475 3.386.756 5.008-.116.125-.242.24-.378.342-.886.663-1.7-.091-2.508-.51a.022.022 0 0 0-.031.025c.253.956 1.06 1.737 2.037 1.7-.229.134-.487.21-.752.222-.372.024-.412.47-.024.585 2.792.794 4.826-1.577 5.94-3.665.36-.793 2.115-4.376 2.374-10.933.067-1.864-.193-3.813-.62-5.647z" fill="#4949E7" fill-rule="nonzero"/><path d="M232.85 80.16c-.96.533-3.264 3.707-3.996 5.616-1.12 2.924-2.127 7.074-3.801 9.719-1.674 2.644-5.427 8.578-7.21 11.17-1.693 2.455-6.955 11.818-4.109 18.66.627.887 3.257 2.93 4.242 3.246 2.664.852 6.18-2.239 7.43-3.59 2.015-2.418 3.358-5.172 4.294-8.193 1.075-3.465 4.325-17.724 5.041-21.328.745-3.748 1.557-7.533 3.414-10.916.901-1.644-4.28-4.951-5.304-4.384z" fill="#D7D7FF" fill-rule="nonzero"/><path d="M236.606 87.875c-.117.157-2.766 5.486-3.633 8.548-1.768 6.244-2.901 12.758-5.94 18.561-1.269 2.42-3.21 5.679-6.214 6.05-1.567.195-3.07-.57-4.346-1.41a14.367 14.367 0 0 1-1.725-1.306c-.446-.4-.888-.826-1.487-.886-.524 2.665-.546 5.438.47 7.888.627.887 3.257 2.93 4.242 3.246 2.664.853 6.18-2.238 7.43-3.59 2.015-2.418 3.358-5.172 4.294-8.192 1.075-3.466 4.325-17.725 5.04-21.329.57-2.852 1.938-7.67 1.87-7.58z" fill="#B3B3FC" fill-rule="nonzero"/><path d="M240.031 78.609c-.243-.961-.584-.497-1.338-1.174-.212-.19-1.026-.336-1.23-.587.226-1.631-.573-1.567-1.92-1.424-.213.021-.203-.193-.202-.482a60.781 60.781 0 0 1 1.836-1.982c.428-.325.832-.695 1.229-1.026.65-.542 3.448-2.41 3.448-2.423.33-.26.593-.49.215-.784-.378-.427-2.15.587-3.108.94-.543.2-2.195.57-2.704.832-.988.503-1.28 1.873-4.413 3.718-.617.54-.857 1.547-1.026 2.978-.452 3.815-1.623 6.155-1.847 8.18-.261 2.369 6.352 3.251 8.405 1.568.302-.206 2.143-2.182 2.401-4.703.118-1.06.301-3.425.254-3.631z" fill="#D7D7FF" fill-rule="nonzero"/><path d="M216.143 129.81c-.131-2.131-2.837-10.658-9.18-8.75-3.742 1.125-10.38 3.434-14.17 4.32-2.88.675-5.85 2.137-8.688 1.7-8.372-.931-16.37-2.57-21.283-.013-2.167 1.13-4.157 4.206-4.934 6.845-.641 2.175-1.362 9.908 2.372 14.41 2.11 2.846 7.4 3.859 10.553 3.666 3.864-.497 8.715-1.389 11.326-3.008.53-.401 4.095-.196 5.444-.528 2.52-.627 7.326-4.154 10.815-4.359 1.164-.069 2.979.487 4.102 0 1-.437 1.833-1.522 2.392-2.426 2.002-1.783 5.127-2.961 6.555-3.485 3.15-1.43 4.91-4.942 4.696-8.371z" fill="#ABFFAD" fill-rule="nonzero"/><path d="M220.09 129.818c.047-.807-.157-2.001-.436-2.517-.371-.702-4.948-8.754-5.371-9.137-1.41-1.275-3.251-1.376-4.546.226-2.1 1.898-4.127 1.419-5.193 2.633-.186.214-.703 1.098 1.301 3.56.784.966 3.77 5.74 4.242 6.897.51 1.254.69 2.606.857 3.934.024.191.304 3.332 1.254 3.867 1.04.583 2.065-.41 2.665-1.158.726-.911 1.097-2.446 2.465-3.584 1.162-.744 2.576-2.08 2.762-4.72z" fill="#8DF690" fill-rule="nonzero"/><path d="M184.68 95.158c.259.5.226.915-.128 1.097-.355.182-.771.015-1.03-.485s-.254-1.036.1-1.219c.354-.183.8.107 1.058.607z" fill="#202095" fill-rule="nonzero"/><path d="M182.22 90.477c-.06 0-1.41.43-1.35 2.3" stroke="#4949E7" stroke-width="2" stroke-linecap="round"/><path d="M168.83 105.84s2.156-.641 2.978.595c.189.282-1.315.126-1.506 1.036-.238 1.137.7 1.532 1.013 1.532M152.396 98.954c.18.18 4.606 6.096 10.296 6.818M152.264 95.973s3.793-.135 7 1.445c2.978 1.467 7.367 1.265 9.845-.452M144.718 94.167s-4.424-1.129-6.592 2.259c-2.168 3.387-2.038 8.4-2.038 8.4M171.453 101.934c.725 0 3.522-.226 2.037-6.73" stroke="#202095" stroke-width="2" stroke-linecap="round"/><path d="M170.18 148.943s-6.916-1.061-4.75-3.505c2.167-2.444 5.256 1.798 8.023 2.581 1.753.488 3.541.842 5.348 1.062M197.475 137.37s1.615 3.643 2.398 2.582c.784-1.061.323-6.04.093-6.547" stroke="#4AD295" stroke-width="2" stroke-linecap="round"/><path d="M171.286 152.121s4.289 22.361 4.012 24.53c-.278 2.167-.97 1.429-1.292 2.673-.323 1.245.323 1.845.138 2.674-.185.83-1.293 4.585-1.337 6.548-.046 2.075.599 4.241 1.522 4.334" stroke="#69E781" stroke-width="2" stroke-linecap="round"/><path d="M161.042 193.276s9.901 6.74 26.795 5.889M181.989 199.754c0 .11-2.135 8.54-4.196 9.201-2.061.662-8.097 1.546-11.89-.404" stroke="#0161CD" stroke-width="2" stroke-linecap="round"/><path d="M168.775 208.772s.737-6.81 1.472-6.883c.735-.074 10.49 1.325 10.49 1.325" stroke="#0161CD" stroke-width="2" stroke-linecap="round"/><path d="M167.12 197.107a7.87 7.87 0 0 0-.558.94" stroke="#5EB2FC" stroke-width="2" stroke-linecap="round"/><path d="M165.587 200.085c-1.588 3.627-3.901 10.58-4.415 20.924" stroke="#5EB2FC" stroke-width="2" stroke-linecap="round" stroke-dasharray="10,6"/><path d="M161.138 222.139c-.02.361-.04.727-.056 1.097" stroke="#5EB2FC" stroke-width="2" stroke-linecap="round"/><path d="M169.581 180.111s4.242 2.351 8.253 1.475M171.241 177.528s4.334 1.245 5.901.784" stroke="#2BC48A" stroke-width="2" stroke-linecap="round"/><ellipse fill="#B3B3FC" fill-rule="nonzero" cx="178.986" cy="102.646" rx="1" ry="1"/><ellipse fill="#B3B3FC" fill-rule="nonzero" cx="184.157" cy="101.154" rx="1" ry="1"/><path d="M186.588 98.412c.144 0 .36-.198.36-.366 0-.168-.216-.366-.36-.366-.145 0-.32.198-.32.366 0 .168.175.366.32.366z" fill="#B3B3FC" fill-rule="nonzero"/><circle fill="#B3B3FC" fill-rule="nonzero" transform="rotate(-68.42 186.532 103.296)" cx="186.532" cy="103.296" r="1"/><ellipse fill="#B3B3FC" fill-rule="nonzero" cx="189.028" cy="100.149" rx="1" ry="1"/><ellipse fill="#B3B3FC" fill-rule="nonzero" cx="189.979" cy="97.171" rx="1" ry="1"/><path d="M207.751 235.196c-6.61 0-11.967.827-11.967 1.848 0 0 2.194 22.212 2.288 23.223.065.895 3.957 3.255 9.76 3.255 5.802 0 9.833-2.508 9.973-3.218.106-.542 1.915-23.262 1.915-23.262.003-1.025-5.356-1.846-11.969-1.846z" fill="#CFD9E0" fill-rule="nonzero"/><path d="M197.72 248.455a16.753 16.753 0 0 1-.364-3.262 6.104 6.104 0 0 1 .347-2.262c.374-.988 1.532-2.527 2.82-1.853.941.488.847 2.008.83 2.887-.019.94-.125 1.861-.19 2.792-.064.931-.125 1.868-.166 2.803-.034.783-.274 1.866.096 2.595.348.687 1.107.715 1.309-.11.156-.66-.11-1.424-.267-2.059-.409-1.663-.18-3.149.12-4.812.176-.984 0-2.958 1.067-3.553 1.663-.94 1.901 2.465 1.901 3.216 0 .867-.066 1.707-.058 2.586.019 1.917 1.262.994 1.113.427-.343-1.3-.229-3.585.293-4.635.494-.991 1.784-1.245 2.315-.157.116.238.292 1.069.618 1.047.755-.053.975-1.003 1.544-1.339.522-.313.826.416 1.967.134 1.531-.378 2.074.606 2.117 1.705.04.99.493 2.378.11 3.301-.572 1.38-.313 1.818.157 1.785.627.13.732-2.475.94-3.35.176-.717.493-1.474 1.132-1.899.57-.378 1.042-.166 1.652-.198l.588-7.21c0-1.02-5.358-1.848-11.967-1.848-6.61 0-11.968.828-11.968 1.848 0 0 .627 7.23 1.24 13.831.107.15 1.292.235.704-2.41z" fill="#8080F1" fill-rule="nonzero"/><ellipse fill="#2D2DB0" fill-rule="nonzero" cx="207.808" cy="237.125" rx="10.886" ry="1.346"/><path d="M215.153 237.821c-.887-.027-1.771-.18-2.665-.177-.969 0-2.138-.133-3.1-.047-.94.083-1.881.205-2.822.124-.896-.096-1.8-.124-2.7-.086-.978.056-1.955.101-2.935.144-.224.01-1.442.157-1.699.178 1.975.275 5.701.513 8.565.513 3.506 0 6.624-.205 8.62-.524a10.28 10.28 0 0 0-1.264-.125z" fill="#5F5FF6" fill-rule="nonzero"/><path d="M209.585 239.083s6.024.141 8.737-.908c0 0 .992-.396.823-.879M203.287 238.88s1.107.192 1.872.24" stroke="#D7D7FF" stroke-width="2" stroke-linecap="round"/><path d="M196.353 237.053s-1.28-19.919 8.105-19.66c9.384.258 12.97 1.9 14.212 19.111" stroke="#BAC8D3" stroke-width="2" stroke-linecap="round"/><path d="M210.176 218.267c-.047-.43-.804-1.22-.984-1.531-.505-.873-.732-1.804-1.268-2.486-.627-.806-1.475-.643-2.094-.077-.44-.644-1.052-1.149-1.911-1.019-.801.123-.984.657-1.18 1.344-.37-.232-.953-.242-1.494.044-.397.234-.68.62-.784 1.069-.47-.53-1.236-.712-1.762.015-.656.91-.156 2.753.063 3.75.223 1.028.463 2.112 1.163 2.796.7.683 1.467.9 2.07.257.314.342 1.054.655 1.59.627.599-.024.94-.235 1.097-.842 1.23.593 2.684.256 2.986-.59 1.198.626 2.256-.596 2.425-.952.263-.546.149-1.806.083-2.405z" fill="#D7D7FF" fill-rule="nonzero"/><path d="M205.86 214.758s.556 4.296 1.468 5.875M202.883 214.872s.627 4.982 1.531 6.56M200.499 215.885s.3 4.085 1.213 5.665" stroke="#8080F1" stroke-width="2" stroke-linecap="round"/><path d="M85.491 345.62a9.096 9.096 0 1 0-18.091-.542c.981 1.157 3.135 2.367 9.072 2.367 4.862-.004 7.184-.657 9.02-1.825z" fill="#1273EB" fill-rule="nonzero"/><path d="M78.739 335.935c-1.02 1.41-3.173 2.293-4.674 1.226a3.082 3.082 0 0 1-.516-.47l.042-.513c-.34-4.433.414-9.018-1.986-12.97-1.051-1.75 1.86-3.01 2.908-1.284l.04.069c.762-.457 1.838-.336 2.215.556a.71.71 0 0 1 .668.505c1.41 3.992 1.328 8.464 1.325 12.647-.001.079-.009.157-.022.234z" fill="#2C8CF4" fill-rule="nonzero"/><path d="M73.46 331.85c1.754-.727 3.439-1.683 5.087-2.575l.073-.04c-.157-2.117-.49-4.208-1.184-6.181a.71.71 0 0 0-.668-.505c-.377-.892-1.453-1.013-2.216-.556l-.04-.07c-1.048-1.724-3.958-.47-2.907 1.286 1.623 2.67 1.803 5.633 1.855 8.641z" fill="#1273EB" fill-rule="nonzero"/><path d="M83.13 342.669a.47.47 0 0 0 .462-.558c-.269-1.419-.712-2.629-1.32-3.596a.471.471 0 1 0-.798.501c.544.867.94 1.966 1.191 3.27a.47.47 0 0 0 .464.383z" fill="#2C8CF4" fill-rule="nonzero"/><path d="M69.74 349.877c.04-.313.069-.627.078-.94.173-5.29-4.075-9.718-9.472-9.897-5.396-.179-9.923 3.969-10.097 9.259-.01.33-.005.659.019.987 1.056 1.22 3.382 2.497 9.766 2.508 5.237-.001 7.736-.69 9.706-1.917z" fill="#1273EB" fill-rule="nonzero"/><path d="M63.288 339.86c-1.122 1.41-3.365 2.194-4.82.976a3.188 3.188 0 0 1-.492-.528l.076-.534c-.061-4.67.995-9.429-1.185-13.731-.955-1.906 2.078-3.035 3.031-1.155l.036.075c.804-.428 1.881-.23 2.213.729.317.03.578.262.645.573 1.17 4.28.805 8.965.536 13.35-.007.083-.02.164-.04.245z" fill="#2C8CF4" fill-rule="nonzero"/><path d="M58.136 336.505c.552-1.782 1.282-3.605 2.456-4.928a3.726 3.726 0 0 1 2.881-1.244 22.582 22.582 0 0 0-.681-4.066.729.729 0 0 0-.645-.574c-.326-.959-1.41-1.158-2.213-.729l-.036-.075c-.953-1.88-3.986-.75-3.031 1.155 1.672 3.3 1.44 6.869 1.27 10.461z" fill="#1273EB" fill-rule="nonzero"/><path d="M67.555 347.12a.47.47 0 0 0 .462-.558c-.268-1.418-.711-2.628-1.32-3.596a.471.471 0 1 0-.797.502c.544.867.94 1.966 1.191 3.27a.47.47 0 0 0 .464.382zM80.226 305.462c.71-.793.77-1.959 1.608-2.68.596-.511.45-.296 2.33-.519 2.844-.352 4.373-.813 6.48-1.842 2.219-1.083 4.606-2.537 6.139-4.459.57-.716 1.083-.39 1.364.34.426.1.8.403.89.809.078-.17.145-.343.202-.52.079-.25.444-.408.637-.17.304.364.476.82.487 1.293.157-.058 0-.186 0 0 .042 4.287-4.224 6.684-7.553 8.172-3.399 1.518-9.366 2.9-12.808 1.042-.116.103 1.567.028 1.422.102a1 1 0 0 1-1.198-1.568z" fill="#2C8CF4" fill-rule="nonzero"/><g fill="#1273EB" fill-rule="nonzero"><path d="M96.697 303.44a.48.48 0 0 1-.2-.089c-.722-.542-2.485-1.995-3.231-3.784a.486.486 0 0 1 .896-.376c.463 1.097 1.527 2.337 2.92 3.383a.486.486 0 0 1-.384.865l-.001.001zM93.883 305.158a.48.48 0 0 1-.229-.113c-.685-.606-2.343-2.22-2.945-4.075a.486.486 0 1 1 .925-.3c.367 1.13 1.362 2.493 2.665 3.647a.486.486 0 0 1-.416.84v.001zM91.023 306.393a.48.48 0 0 1-.26-.142c-.627-.655-2.112-2.387-2.544-4.278a.486.486 0 1 1 .94-.218c.268 1.168 1.107 2.562 2.303 3.828a.486.486 0 0 1-.447.81h.008zM87.529 307.37a.487.487 0 0 1-.334-.245c-1.002-1.841-1.506-3.352-1.542-4.617a.486.486 0 0 1 .971-.027c.032 1.108.497 2.477 1.425 4.18a.486.486 0 0 1-.52.71v-.001zM84.463 307.755a.484.484 0 0 1-.351-.279c-.7-1.567-1.325-3.105-1.254-4.616a.487.487 0 0 1 .972.049c-.066 1.296.514 2.713 1.164 4.172a.486.486 0 0 1-.536.676l.005-.002z"/></g><path d="M110.893 299.545c-2.757 3.467-8.187 4.304-11.948 2.093-2.508-1.474-4.327-4.28-4.482-7.21-.095-1.814.314-3.728 1.312-5.262 1.41-2.165 3.795-4.126 3.996-3.946.94.837 3.06 2.68 3.997 3.515-.12.114-.24.23-.352.341-1.254 1.239-2.326 2.806-2.302 4.64.017 1.284.581 2.36 1.744 2.942 1.21.607 2.342.259 3.38-.47 1.037-.73 2.037-1.746 2.627-2.925 1.11.986 2.93 2.24 3.79 3.448.132.198-1.386 2.36-1.762 2.834z" fill="#1273EB" fill-rule="nonzero"/><path d="M102.526 296.473c-.74.216-2.097 1.85-2.472 2.627a13.71 13.71 0 0 0-.93 2.64c.288.159.584.301.888.426.092-1.04.42-2.046.958-2.94.486-.784 1.224-1.828 2.3-2.392a7.707 7.707 0 0 1-.744-.36z" fill="#0161CD" fill-rule="nonzero"/><path d="M101.81 301.46c3.346.651 5.732-.376 6.897-1.084 1.4-.85 2.46-2.08 2.7-3.135a.47.47 0 0 0-.08-.384c-.373-.503-1.788-1.5-2.067-1.694a.47.47 0 1 0-.538.772c.593.406 1.16.846 1.7 1.32-.251.663-.988 1.577-2.195 2.314-1.129.685-3.53 1.699-6.95.8a.46.46 0 0 0-.582.346.47.47 0 0 0 .336.575c.266.065.526.122.779.17z" fill="#2C8CF4" fill-rule="nonzero"/><path d="M49.973 318.765l1.049-2.498c2-4.76 3.638-8.557 5.901-13.132l2.223-4.33 21.944-.735.91 7.162c1.338 6.531 2.92 12.282 3.748 18.982.433 3.498-4.193 4.335-6.606 4.77-3.39.612-6.88.6-10.295.242-3.264-.341-6.526-.93-9.651-1.997a26.504 26.504 0 0 1-4.624-2.058c-2.136-1.225-5.916-3.273-4.599-6.406z" fill="#5EB2FC" fill-rule="nonzero"/><path d="M76.025 329.75a20.325 20.325 0 0 0 3.2-.301c2.428-.44 7.478-1.351 6.99-5.293-.58-4.69-1.512-8.845-2.498-13.247-.419-1.865-.851-3.793-1.254-5.771l-.906-7.126a.474.474 0 0 0-.94.12l.91 7.161a296.51 296.51 0 0 0 1.265 5.825c.981 4.377 1.91 8.512 2.484 13.155.38 3.058-3.918 3.834-6.222 4.251-3.058.553-6.27.21-9.372-.12l-.798-.085a.473.473 0 0 0-.097.94l.795.083c2.116.213 4.287.452 6.443.408z" fill="#92CDFA" fill-rule="nonzero"/><path d="M81.847 314.646a.47.47 0 0 0 .074 0 .47.47 0 0 0 .38-.547c-.518-2.91-1.133-5.65-1.783-8.552l-.295-1.317a.47.47 0 0 0-.918.206l.294 1.318c.648 2.89 1.254 5.62 1.776 8.511a.47.47 0 0 0 .472.38z" fill="#92CDFA" fill-rule="nonzero"/><g fill="#2C8CF4" fill-rule="nonzero"><path d="M59.454 325.01c-3.072-1.264-8.51-3.605-7.631-5.784.663-1.644 1.812-4.98 2.526-6.517-1.514 6.376 4.278 11.705 5.105 12.3z"/><path d="M59.306 325.378c-4.405-1.81-8.778-3.975-7.849-6.293.248-.616.565-1.469.9-2.375.555-1.494 1.182-3.188 1.635-4.161a.392.392 0 0 1 .738.255c-1.556 6.555 4.888 11.845 4.955 11.894a.392.392 0 0 1-.38.68zm-6.212-8.395c-.339.914-.658 1.774-.908 2.395-.586 1.455 2.856 3.273 5.422 4.423-1.629-1.813-3.715-4.914-3.887-8.497-.206.557-.423 1.132-.627 1.68v-.001z"/></g><g fill-rule="nonzero"><path d="M84.31 262.281a.86.86 0 0 0 .137-.157l3.36-5.106a.848.848 0 1 0-1.411-.933l-3.36 5.107a.848.848 0 0 0 1.28 1.097l-.005-.008z" fill="#2C8CF4"/><path d="M87.72 271.907s3.077-1.665 4.133-5.86c.903-3.581-10.588-11.321-13.934-9.65-3.135 1.567-4.122 6.592-4.122 6.592l13.923 8.918zM86.021 251.497a3.762 3.762 0 0 1 3.889-.223 3.814 3.814 0 0 1 .374 6.538 3.762 3.762 0 0 1-3.89.221 3.814 3.814 0 0 1-.375-6.536h.002z" fill="#5EB2FC"/><path d="M62.593 259.969a.848.848 0 0 0 .17-.948l-2.523-5.568a.848.848 0 1 0-1.544.7l2.523 5.567a.848.848 0 0 0 1.374.249z" fill="#2C8CF4"/><path d="M72.168 262.381s-.013-3.125-2.27-6.815c-1.696-2.771-14.709 2.252-16.301 4.41-2.082 2.822 2.321 8.678 2.321 8.678l16.25-6.273zM55.998 247.981a3.814 3.814 0 0 1 5.863 2.922 3.762 3.762 0 0 1-1.739 3.486 3.862 3.862 0 0 1-2.531.572 3.807 3.807 0 0 1-1.593-6.98z" fill="#5EB2FC"/><path d="M42.45 275.14a.848.848 0 0 0-.156-1.525l-5.776-2a.848.848 0 1 0-.555 1.602l5.776 2c.237.08.498.053.712-.077z" fill="#2C8CF4"/><path d="M45.106 284.97s-3.37.445-6.85-2.126c-2.612-1.93 1.737-15.378 5.165-16.144 2.259-.505 7.287 2.713 7.287 2.713l-5.602 15.557zM30.004 269.722a3.762 3.762 0 0 1 3.22-2.195 3.814 3.814 0 0 1 3.677 5.413 3.762 3.762 0 0 1-3.218 2.194 3.809 3.809 0 0 1-3.679-5.412z" fill="#5EB2FC"/><path d="M30.222 269.31a4.53 4.53 0 0 0 1.51 3.095c1.452 1.339 3.462 1.503 5.075.346.086-.062.164-.134.246-.203a4.038 4.038 0 0 1-.15.393 3.762 3.762 0 0 1-3.217 2.195 3.809 3.809 0 0 1-3.682-5.414c.064-.142.136-.28.218-.413z" fill="#2C8CF4"/><path d="M44.492 290.056c-3.508-13.044 1.86-28.545 22.28-31.515 8.895-1.293 22.01 2.626 26.2 15.156 4.28 12.795-3.056 25.079-12.116 28.115-20.513 6.854-33.1.373-36.364-11.756z" fill="#5EB2FC"/><path d="M43.421 266.701c.08-.023.157-.039.242-.063 1.116-.313.183 3.91.09 4.39-.504 2.595-1.567 5.03-2.58 7.459-.2.484-2.728 4.925-3.324 3.88-1.752-3.082 2.255-14.672 5.572-15.666z" fill="#2C8CF4"/><ellipse transform="rotate(-38.5 421.178 32.185)" cx="5.81" cy="5.978" rx="3.861" ry="4.384" fill="#F8FAFB"/><ellipse transform="rotate(-26.41 606.247 22.581)" cx="8.625" cy="8.867" rx="6.257" ry="6.699" fill="#F8FAFB"/><g fill="#2C8CF4"><path d="M90.278 269.074a.516.516 0 0 0 .072-.685 25.623 25.623 0 0 0-6.406-6.204.516.516 0 1 0-.578.856 24.577 24.577 0 0 1 6.149 5.956.516.516 0 0 0 .72.116l.043-.039z"/></g><g fill="#2C8CF4"><path d="M59.285 261.256a.519.519 0 0 0-.437-.94 46.787 46.787 0 0 0-3.437 1.576c-.314.161-.618.328-.913.502a.516.516 0 0 0-.19.705.505.505 0 0 0 .706.19c.287-.165.58-.326.876-.481.804-.42 2.494-1.2 3.336-1.53l.06-.022z"/></g><g fill="#2C8CF4"><path d="M68.69 258.449a.514.514 0 0 1 .436-.627c.382-.047.766-.087 1.149-.113a.516.516 0 0 1 .14 1.02l-.065.01a24.25 24.25 0 0 0-1.097.106.511.511 0 0 1-.562-.392l-.001-.004z"/></g><g fill="#2C8CF4"><path d="M80.554 302.614c.553-.229 1.097-.48 1.635-.743a.516.516 0 0 0-.46-.924c-.51.253-1.039.493-1.567.714-4.389 1.817-12.104 2.95-16.754 2.12a.516.516 0 0 0-.182 1.015c4.842.865 12.76-.29 17.328-2.182z"/></g><g fill="#2C8CF4"><path d="M75.703 304.025c-1.024 2.014-7.165 3.23-12.976.313 5.543.856 12.976-.313 12.976-.313z"/></g><g fill="#2C8CF4"><path d="M41.95 284.13a5.173 5.173 0 0 0 1.655.53c.174.03.332.062.47.098.199.047.406-.036.519-.207l.928-1.44a24.766 24.766 0 0 0 2.77-6.63.516.516 0 0 1 1 .255 26.004 26.004 0 0 1-3.426 7.774c-.434.663-.871 1.35-1.77 1.292a1.505 1.505 0 0 1-.27-.042c-.126-.032-.264-.057-.414-.085a6.204 6.204 0 0 1-1.961-.64.517.517 0 0 1 .494-.907l.004.001z"/></g><g fill="#1273EB"><path d="M61.25 291.348l.156.012c9.195.705 26.75-5.536 29.195-13.433a.536.536 0 0 0-1.025-.313c-2.267 7.33-19.42 13.346-28.093 12.682a8.583 8.583 0 0 1-2.793-.742.536.536 0 0 0-.47.964 9.768 9.768 0 0 0 3.03.83z"/></g></g><circle transform="rotate(-84.5 184.18 79.702)" cx="1.624" cy="1.746" r="1.478" fill="#92CDFA" fill-rule="nonzero"/><circle transform="rotate(-84.5 166.995 94.698)" cx="1.704" cy="1.72" r="1.478" fill="#C7EBFF" fill-rule="nonzero"/><path d="M45.562 280.595s-.997 2.37-1.838 3.387l-3.251-.94a18.781 18.781 0 0 0 2.508-4.39c.102 2.173 2.581 1.943 2.581 1.943z" fill="#2C8CF4" fill-rule="nonzero"/><path d="M81.606 258.992a.9.9 0 0 1 1.125-.6c.08.024 1.97.615 4.353 2.688.01.01.015.024.026.035-.335.484-.69.957-1.056 1.423a.884.884 0 0 1-.157-.097c-2.063-1.798-3.679-2.323-3.697-2.323a.901.901 0 0 1-.594-1.126zM88.502 262.482c1.14.11.97 1.88-.17 1.77-1.142-.112-.97-1.88.17-1.77z" fill="#92CDFA" fill-rule="nonzero"/><path d="M43.014 318.641c.968-5.224 5.462-14.511 11.685-14.263.93.036 1.903.492 2.285 1.338.438.967-.031 2.15-.823 2.86-.845.756-1.967.924-2.867 1.551-1.02.712-1.976 1.848-2.664 2.87-.754 1.111-2.138 4.588-2.455 5.895-.246 1.019-.099 1.978-.735 2.822-.567.757-1.458.29-1.768-.4-.49.086-1.047-.133-1.18-.685a7.534 7.534 0 0 1-.115-.591c-.707.1-1.536-.467-1.363-1.397z" fill="#2C8CF4" fill-rule="nonzero"/><path d="M33.568 320.449c1.96-3.972 7.09-5.941 11.234-4.577 2.76.909 5.135 3.266 5.906 6.092.47 1.753.48 3.71-.168 5.42-.913 2.413-2.835 4.836-3.069 4.703-1.097-.627-3.558-1.969-4.65-2.586.092-.138.185-.276.271-.41.962-1.475 1.679-3.235 1.266-5.015-.288-1.254-1.068-2.184-2.327-2.508-1.312-.336-2.351.244-3.206 1.17-.854.924-1.627 2.139-1.948 3.414-1.295-.728-3.339-1.567-4.436-2.57-.166-.157.855-2.593 1.127-3.133z" fill="#1273EB" fill-rule="nonzero"/><g fill="#1273EB" fill-rule="nonzero"><path d="M55.417 308.901a.486.486 0 0 1-.59-.64c.129-.338-.142-1.38-.674-2.169-.335-.498-.605-.627-.699-.634a.486.486 0 1 1 .02-.972c.51.01 1.024.378 1.487 1.064.61.905 1.066 2.296.783 3.058a.486.486 0 0 1-.327.293zM53.415 309.889a.486.486 0 0 1-.618-.406c-.137-1.097-1.45-2.65-1.967-2.97a.486.486 0 1 1 .513-.827c.647.402 2.235 2.207 2.419 3.675a.486.486 0 0 1-.347.528zM51.857 311.309a.486.486 0 0 1-.583-.28c-.611-1.471-2.1-2.281-2.763-2.388a.486.486 0 0 1 .156-.96c.982.158 2.773 1.216 3.505 2.979a.486.486 0 0 1-.262.635l-.053.014zM50.11 313.41a.486.486 0 0 1-.59-.294c-.313-.818-2.212-1.469-2.566-1.517a.486.486 0 0 1 .124-.964c.313.04 2.812.72 3.351 2.136a.486.486 0 0 1-.282.627l-.038.013zM48.681 315.978a.486.486 0 0 1-.53-.185c-.546-.763-2.307-1.555-2.689-1.478a.492.492 0 0 1-.577-.373.48.48 0 0 1 .36-.575c.855-.198 2.996.882 3.697 1.86a.486.486 0 0 1-.26.751z"/></g><path d="M49.055 322.815h.014a.47.47 0 0 0 .302-.592 8.528 8.528 0 0 0-4.779-5.157c-1.96-.791-4-.677-5.915.34a.47.47 0 0 0 .442.83 5.906 5.906 0 0 1 5.12-.297 7.563 7.563 0 0 1 4.232 4.574.47.47 0 0 0 .584.302z" fill="#2C8CF4" fill-rule="nonzero"/><path d="M45.572 321.126a5.155 5.155 0 0 1-1.505-1.12c-.307.36-.588.74-.842 1.139.449.445 1.43 1.41 1.588 2.09.412 1.787-.76 4.39-1.724 5.856-.086.134-.18.272-.271.41 1.097.617 3.56 1.967 4.65 2.586.235.133 2.156-2.29 3.07-4.702.647-1.71.645-3.668.167-5.42a8.055 8.055 0 0 0-.686-1.697c-1.154 1.116-2.917 1.583-4.447.858z" fill="#1273EB" fill-rule="nonzero"/><path d="M237.282 74.171c1.158-.262 6.919-2.508 13.112-11.561a.567.567 0 0 1-.248.088.951.951 0 0 1-.901-.577.801.801 0 0 1-.025-.085h-.018c-2.542 2.632-11.419 10.331-11.857 10.955-.44.624-1.223 1.442-.063 1.18z" fill="#FCD250" fill-rule="nonzero"/><path d="M249.42 62.777a.95.95 0 0 1 .524-.178c.57-.025 1.081-.635 1.555-.898.352-.2.75-.306 1.156-.306.688-.314 1.504-.243 2.457.85a2.788 2.788 0 0 0-.722-1.342c.355.063.49.197.535.262-.456-.784-1.652-2.323-4.184-1.687-2.57.646-1.337 3.265-1.337 3.265l.016.034z" fill="#EB7D16" fill-rule="nonzero"/><path d="M252.12 61.633c.136-.067.276-.126.42-.175.637-.326 1.385-.36 2.256.47-.484-.68-1.119-1.157-2.257-1.226-1.346-.08-2.752.527-3.202 1.881.04.105.069.168.069.168l.241.533a.773.773 0 0 1 .598-.599c.47-.273.94-.531 1.41-.823.147-.093.303-.17.466-.229z" fill="#F69110" fill-rule="nonzero"/><path d="M249.229 64.204c.37-.497 1.141-1.568 1.143-1.593a.757.757 0 0 1-.314.087.86.86 0 0 1-.86-.654h-.018c-.338.351-.791.793-1.321 1.295.36.418.838.719 1.37.865z" fill="#FFEEB6" fill-rule="nonzero"/><path d="M251.522 60.498a3.448 3.448 0 0 1 1.524.082c.09.032.141.128.117.22a.157.157 0 0 1-.202.123c-1.053-.326-2.72.074-3.047.94a.157.157 0 0 1-.215.095.187.187 0 0 1-.092-.234c.25-.661 1.053-1.088 1.915-1.226z" fill="#FCBD24" fill-rule="nonzero"/><path d="M250.867 59.992c.297-.043.6-.037.895.017.094.02.156.11.143.204a.157.157 0 0 1-.185.149c-.808-.138-1.444.075-1.792.599a.157.157 0 0 1-.23.037.19.19 0 0 1-.04-.249c.275-.415.716-.69 1.209-.757z" fill="#FCBD24" fill-rule="nonzero"/><path d="M243.094 74.377c.332-.544.94-1.356.607-1.924a.517.517 0 0 0-.47-.287c.156-.302.281-.857.09-1.144-.272-.409-1.88.195-2.09.271-.49.184-2.284.209-2.766.538-.829.567-4.599 3.2-4.177 3.104-.025.042 1.69 2.125 1.666 2.169-.313.564 3.823 5.008 3.886 4.25.02-.201.544-2.943.544-2.946.218-.737 2.12-1.738 2.672-1.98 1.753-.763.787-2.318.038-2.051z" fill="#D7D7FF" fill-rule="nonzero"/><path d="M236.4 75.237s2.866-2.047 3.391-2.194c.525-.148 3.236-.704 3.433-.872M237.893 77.057s1.961-1.848 2.38-1.96c.418-.11 2.603-.576 2.76-.706" stroke="#B3B3FC" stroke-width="2" stroke-linecap="round"/><path d="M106.95 308.74c-6.096 0-11.04.763-11.04 1.704 0 0 2.025 20.488 2.11 21.42.058.826 3.649 3.003 9 3.003s9.07-2.307 9.193-2.96c.097-.5 1.766-21.457 1.766-21.457.008-.947-4.934-1.71-11.03-1.71z" fill="#CFD9E0" fill-rule="nonzero"/><path d="M106.95 308.74c-6.096 0-11.04.763-11.04 1.704 0 0 .116 1.35.295 3.388v.063c.076.867-.041 2.693.258 2.914.267.33.914.235.99-.157.049-.267.12-.529.216-.783.344-.911 1.41-2.331 2.608-1.709.862.45 1.277 1.48.901 3.204-.185.843.826 1.52.694.574-.126-.914 0-2.728.985-3.278 1.534-.86 1.752 2.274 1.754 2.967 0 .8-.061 1.568-.053 2.386.017 1.768 1.164.917 1.026.393-.313-1.199-.211-3.305.271-4.274.455-.914 1.646-1.147 2.135-.144.107.22.27.986.57.965.695-.05.899-.926 1.424-1.233.481-.283.762.382 1.814.122 1.41-.35 2.76 1.42 2.398 2.368-.524 1.367.627 1.637.677.806.437-7.032 2.005-1.906 2.569-1.934l.542-6.646c.003-.933-4.939-1.696-11.035-1.696z" fill="#2C8CF4" fill-rule="nonzero"/><ellipse fill="#143B63" fill-rule="nonzero" cx="106.996" cy="310.525" rx="10.041" ry="1.241"/><path d="M113.772 311.168c-.818-.024-1.633-.166-2.451-.157-.893 0-1.972-.124-2.86-.044-.89.08-1.725.19-2.6.113a16.86 16.86 0 0 0-2.492-.078c-.902.051-1.802.094-2.705.133-.207.01-1.33.147-1.567.157 1.82.254 5.257.47 7.9.47 3.235 0 6.112-.19 7.946-.483a9.483 9.483 0 0 0-1.17-.111z" fill="#0353A7" fill-rule="nonzero"/><path d="M108.63 312.403s5.556.13 8.058-.837c0 0 .915-.367.759-.81M102.82 312.246s1.021.179 1.725.221" stroke="#C7EBFF" stroke-width="2" stroke-linecap="round"/><path d="M96.307 310.188c.21-5.397.973-13.847 9.316-13.967" stroke="#BAC8D3" stroke-width="2" stroke-linecap="round"/><path d="M198.59 328.317c-1.098-.122-1.44.823-.892.823.548 0 2.334.205 2.401-.205.068-.411-.892-.549-1.51-.618zM207.005 326.245c-.798.4-1.783.069-1.373.48.41.41 2.952.617 3.844.548.891-.069 2.47-.138 1.509-.617-.96-.48-1.097-.549-2.265-.687-1.168-.138-1.577.209-1.715.276zM209.723 329.664c-.898.09-1.222.83-.33.9.891.068 3.692.335 3.28-.283-.412-.617-2.194-.694-2.95-.617zM219.385 327.479c-1.097-.123-1.44.822-.892.822.549 0 2.334.206 2.401-.205.068-.41-.892-.548-1.51-.617z" fill="#5F5FF6" fill-rule="nonzero"/></g></g></svg>